<svg id="my-svg" width="100%" xmlns="http://www.w3.org/2000/svg" xmlns:xlink="http://www.w3.org/1999/xlink" style="max-width: 1012.98px; background-color: white;" viewBox="-482.8082580566406 -157.21765899658203 1012.9837036132812 445.4353332519531" role="graphics-document document" aria-roledescription="architecture"><style>#my-svg{font-family:"trebuchet ms",verdana,arial,sans-serif;font-size:16px;fill:#333;}@keyframes edge-animation-frame{from{stroke-dashoffset:0;}}@keyframes dash{to{stroke-dashoffset:0;}}#my-svg .edge-animation-slow{stroke-dasharray:9,5!important;stroke-dashoffset:900;animation:dash 50s linear infinite;stroke-linecap:round;}#my-svg .edge-animation-fast{stroke-dasharray:9,5!important;stroke-dashoffset:900;animation:dash 20s linear infinite;stroke-linecap:round;}#my-svg .error-icon{fill:#552222;}#my-svg .error-text{fill:#552222;stroke:#552222;}#my-svg .edge-thickness-normal{stroke-width:1px;}#my-svg .edge-thickness-thick{stroke-width:3.5px;}#my-svg .edge-pattern-solid{stroke-dasharray:0;}#my-svg .edge-thickness-invisible{stroke-width:0;fill:none;}#my-svg .edge-pattern-dashed{stroke-dasharray:3;}#my-svg .edge-pattern-dotted{stroke-dasharray:2;}#my-svg .marker{fill:#333333;stroke:#333333;}#my-svg .marker.cross{stroke:#333333;}#my-svg svg{font-family:"trebuchet ms",verdana,arial,sans-serif;font-size:16px;}#my-svg p{margin:0;}#my-svg .edge{stroke-width:3;stroke:#333333;fill:none;}#my-svg .arrow{fill:#333333;}#my-svg .node-bkg{fill:none;stroke:hsl(240, 60%, 86.2745098039%);stroke-width:2px;stroke-dasharray:8;}#my-svg .node-icon-text{display:flex;align-items:center;}#my-svg .node-icon-text&gt;div{color:#fff;margin:1px;height:fit-content;text-align:center;overflow:hidden;display:-webkit-box;-webkit-box-orient:vertical;}#my-svg .node .neo-node{stroke:#9370DB;}#my-svg [data-look="neo"].node rect,#my-svg [data-look="neo"].cluster rect,#my-svg [data-look="neo"].node polygon{stroke:#9370DB;filter:drop-shadow(1px 2px 2px rgba(185, 185, 185, 1));}#my-svg [data-look="neo"].node path{stroke:#9370DB;stroke-width:1px;}#my-svg [data-look="neo"].node .outer-path{filter:drop-shadow(1px 2px 2px rgba(185, 185, 185, 1));}#my-svg [data-look="neo"].node .neo-line path{stroke:#9370DB;filter:none;}#my-svg [data-look="neo"].node circle{stroke:#9370DB;filter:drop-shadow(1px 2px 2px rgba(185, 185, 185, 1));}#my-svg [data-look="neo"].node circle .state-start{fill:#000000;}#my-svg [data-look="neo"].icon-shape .icon{fill:#9370DB;filter:drop-shadow(1px 2px 2px rgba(185, 185, 185, 1));}#my-svg [data-look="neo"].icon-shape .icon-neo path{stroke:#9370DB;filter:drop-shadow(1px 2px 2px rgba(185, 185, 185, 1));}#my-svg :root{--mermaid-font-family:"trebuchet ms",verdana,arial,sans-serif;}</style><g/><g class="architecture-edges"><g><path d="M -358.58952174504725,-34.717660222624374 L -283.5904550308985,-34.717660222624374 L-208.59138831674977,-34.717660222624374" class="edge" id="my-svg-L_binance_collector_0"/><polygon points="13.333333333333334,6.666666666666667 0,13.333333333333334 0,0" transform="translate(-219.92472165008311,-41.38432688929104)" class="arrow"/></g><g><path d="M -128.59138831674977,-34.717660222624374 L -68.17571622387419,-34.717660222624374 L-7.760044130998608,-34.717660222624374" class="edge" id="my-svg-L_collector_kafka_0"/><polygon points="13.333333333333334,6.666666666666667 0,13.333333333333334 0,0" transform="translate(-19.093377464331944,-41.38432688929104)" class="arrow"/></g><g><path d="M 72.23995586900139,-34.717660222624374 L 123.63018771589145,-34.717660222624374 L175.02041956278154,-34.717660222624374" class="edge" id="my-svg-L_kafka_processor_0"/><polygon points="13.333333333333334,6.666666666666667 0,13.333333333333334 0,0" transform="translate(163.6870862294482,-41.38432688929104)" class="arrow"/></g><g><path d="M 32.2399558690014,5.2823397773756255 L 32.2399558690014,57 L32.2399558690014,108.71766022262437" class="edge" id="my-svg-L_kafka_alerting_0"/><polygon points="0,0 13.333333333333334,0 6.666666666666667,13.333333333333334" transform="translate(25.57328920233473,97.38432688929105)" class="arrow"/></g><g><path d="M 72.23995586900139,148.71766022262437 L 215.02041956278157,148.7176602226244 L215.02041956278154,5.2823397773756255" class="edge" id="my-svg-L_alerting_processor_0"/><polygon points="6.666666666666667,0 13.333333333333334,13.333333333333334 0,13.333333333333334" transform="translate(208.35375289611488,3.2823397773756255)" class="arrow"/></g><g><path d="M 255.02041956278154,-34.717660222624374 L 330.0549706539144,-34.717660222624374 L405.08952174504725,-34.717660222624374" class="edge" id="my-svg-L_processor_clients_0"/><polygon points="13.333333333333334,6.666666666666667 0,13.333333333333334 0,0" transform="translate(393.75618841171394,-41.38432688929104)" class="arrow"/></g></g><g class="architecture-services"><g id="my-svg-service-binance" class="architecture-service" transform="translate(-438.58952174504725,-74.71766022262437)"><g dy="1em" alignment-baseline="middle" dominant-baseline="middle" text-anchor="middle" transform="translate(40, 80)"><g><rect class="background" style="stroke: none"/><text y="-10.1" style=""><tspan class="text-outer-tspan row" x="0" y="-0.1em" dy="1.1em"><tspan font-style="normal" class="text-inner-tspan" font-weight="normal">Binance</tspan></tspan><tspan class="text-outer-tspan row" x="0" y="1em" dy="1.1em"><tspan font-style="normal" class="text-inner-tspan" font-weight="normal">WebSocket</tspan></tspan></text></g></g><g><g><svg xmlns="http://www.w3.org/2000/svg" width="80" height="80" viewBox="0 0 256 256"><defs><linearGradient id="IconifyId19ebec15b6454291a0" x1="49.973%" x2="49.973%" y1="-.024%" y2="99.99%"><stop offset="0%" stop-color="#f9aa4b"/><stop offset="100%" stop-color="#f7931a"/></linearGradient></defs><path fill="url(#IconifyId19ebec15b6454291a0)" d="M252.171 158.954c-17.102 68.608-86.613 110.314-155.123 93.211c-68.61-17.102-110.316-86.61-93.213-155.119C20.937 28.438 90.347-13.268 158.957 3.835c68.51 17.002 110.317 86.51 93.214 155.119"/><path fill="#fff" d="M188.945 112.05c2.5-17-10.4-26.2-28.2-32.3l5.8-23.1l-14-3.5l-5.6 22.5c-3.7-.9-7.5-1.8-11.3-2.6l5.6-22.6l-14-3.5l-5.7 23q-4.65-1.05-9-2.1v-.1l-19.4-4.8l-3.7 15s10.4 2.4 10.2 2.5c5.7 1.4 6.7 5.2 6.5 8.2l-6.6 26.3c.4.1.9.2 1.5.5c-.5-.1-1-.2-1.5-.4l-9.2 36.8c-.7 1.7-2.5 4.3-6.4 3.3c.1.2-10.2-2.5-10.2-2.5l-7 16.1l18.3 4.6c3.4.9 6.7 1.7 10 2.6l-5.8 23.3l14 3.5l5.8-23.1c3.8 1 7.6 2 11.2 2.9l-5.7 23l14 3.5l5.8-23.3c24 4.5 42 2.7 49.5-19c6.1-17.4-.3-27.5-12.9-34.1c9.3-2.1 16.2-8.2 18-20.6m-32.1 45c-4.3 17.4-33.7 8-43.2 5.6l7.7-30.9c9.5 2.4 40.1 7.1 35.5 25.3m4.4-45.3c-4 15.9-28.4 7.8-36.3 5.8l7-28c7.9 2 33.4 5.7 29.3 22.2"/></svg></g></g></g><g id="my-svg-service-collector" class="architecture-service" transform="translate(-208.59138831674977,-74.71766022262437)"><g dy="1em" alignment-baseline="middle" dominant-baseline="middle" text-anchor="middle" transform="translate(40, 80)"><g><rect class="background" style="stroke: none"/><text y="-10.1" style=""><tspan class="text-outer-tspan row" x="0" y="-0.1em" dy="1.1em"><tspan font-style="normal" class="text-inner-tspan" font-weight="normal">collector</tspan></tspan><tspan class="text-outer-tspan row" x="0" y="1em" dy="1.1em"><tspan font-style="normal" class="text-inner-tspan" font-weight="normal">service</tspan></tspan></text></g></g><g><g><svg xmlns="http://www.w3.org/2000/svg" width="80" height="80" viewBox="0 0 256 256"><path d="m254.251 124.862l-10.747-6.653a146 146 0 0 0-.306-3.13l9.236-8.615a3.69 3.69 0 0 0 1.105-3.427a3.69 3.69 0 0 0-2.33-2.744l-11.807-4.415a137 137 0 0 0-.925-3.048l7.365-10.229a3.698 3.698 0 0 0-2.407-5.814l-12.45-2.025c-.484-.944-.988-1.874-1.496-2.796l5.231-11.483a3.68 3.68 0 0 0-.288-3.59a3.68 3.68 0 0 0-3.204-1.642l-12.636.44a100 100 0 0 0-1.996-2.421l2.904-12.308a3.7 3.7 0 0 0-.986-3.466a3.7 3.7 0 0 0-3.464-.986l-12.305 2.901a106 106 0 0 0-2.426-1.996l.442-12.635a3.68 3.68 0 0 0-1.64-3.205a3.69 3.69 0 0 0-3.59-.29l-11.48 5.234a133 133 0 0 0-2.796-1.5l-2.03-12.452a3.7 3.7 0 0 0-5.812-2.407l-10.236 7.365q-1.51-.481-3.042-.922L155.72 4.794a3.69 3.69 0 0 0-2.745-2.336a3.71 3.71 0 0 0-3.424 1.106l-8.615 9.243a111 111 0 0 0-3.13-.306l-6.653-10.75a3.698 3.698 0 0 0-6.289 0l-6.653 10.75a110 110 0 0 0-3.133.306l-8.617-9.243a3.695 3.695 0 0 0-6.169 1.23l-4.414 11.809c-1.023.293-2.035.604-3.045.922L82.599 10.16a3.69 3.69 0 0 0-3.579-.415a3.7 3.7 0 0 0-2.235 2.822l-2.03 12.452c-.94.487-1.869.988-2.796 1.5l-11.481-5.235a3.69 3.69 0 0 0-3.588.291a3.68 3.68 0 0 0-1.642 3.205l.44 12.635a118 118 0 0 0-2.426 1.996l-12.305-2.9a3.71 3.71 0 0 0-3.466.985a3.7 3.7 0 0 0-.986 3.466l2.899 12.308q-1.01 1.196-1.991 2.421l-12.636-.44a3.72 3.72 0 0 0-3.204 1.641a3.7 3.7 0 0 0-.291 3.59l5.234 11.484c-.509.922-1.012 1.852-1.5 2.796l-12.449 2.025a3.7 3.7 0 0 0-2.407 5.814l7.365 10.23q-.482 1.514-.925 3.047l-11.808 4.415a3.702 3.702 0 0 0-1.225 6.171l9.237 8.614c-.115 1.04-.217 2.087-.305 3.131L1.75 124.862A3.7 3.7 0 0 0 0 128.007c0 1.284.663 2.473 1.751 3.143l10.748 6.653q.132 1.572.305 3.131l-9.238 8.617a3.697 3.697 0 0 0 1.226 6.169l11.808 4.415c.294 1.022.605 2.037.925 3.047l-7.365 10.231a3.696 3.696 0 0 0 2.41 5.812l12.447 2.025c.487.944.986 1.874 1.5 2.8l-5.235 11.48a3.69 3.69 0 0 0 .291 3.59a3.68 3.68 0 0 0 3.204 1.641l12.63-.442c.659.821 1.322 1.626 1.997 2.426l-2.899 12.31a3.68 3.68 0 0 0 .986 3.459a3.68 3.68 0 0 0 3.466.983l12.305-2.898c.8.68 1.61 1.34 2.427 1.99l-.44 12.639a3.694 3.694 0 0 0 5.229 3.492l11.481-5.231a106 106 0 0 0 2.796 1.499l2.03 12.445a3.69 3.69 0 0 0 2.235 2.825a3.7 3.7 0 0 0 3.579-.413l10.229-7.37c1.01.32 2.025.633 3.047.927l4.415 11.804a3.69 3.69 0 0 0 2.744 2.331a3.68 3.68 0 0 0 3.425-1.106l8.617-9.238c1.04.12 2.086.22 3.133.313l6.653 10.748a3.7 3.7 0 0 0 3.143 1.75a3.7 3.7 0 0 0 3.145-1.75l6.653-10.748c1.047-.093 2.092-.193 3.131-.313l8.615 9.238a3.68 3.68 0 0 0 3.424 1.106a3.69 3.69 0 0 0 2.744-2.331l4.415-11.804c1.022-.294 2.038-.607 3.048-.927l10.231 7.37a3.7 3.7 0 0 0 5.812-2.412l2.03-12.445c.939-.487 1.868-.993 2.795-1.5l11.481 5.232a3.692 3.692 0 0 0 5.23-3.492l-.44-12.638a99 99 0 0 0 2.423-1.991l12.306 2.898c1.25.294 2.56-.07 3.463-.983a3.68 3.68 0 0 0 .986-3.459l-2.898-12.31c.675-.8 1.34-1.605 1.99-2.426l12.636.442a3.68 3.68 0 0 0 3.204-1.64a3.69 3.69 0 0 0 .289-3.592l-5.232-11.478c.511-.927 1.013-1.857 1.497-2.8l12.45-2.026a3.68 3.68 0 0 0 2.822-2.236a3.7 3.7 0 0 0-.415-3.576l-7.365-10.23q.479-1.516.925-3.048l11.806-4.415a3.68 3.68 0 0 0 2.331-2.745a3.68 3.68 0 0 0-1.106-3.424l-9.235-8.617c.112-1.04.215-2.086.305-3.13l10.748-6.654a3.69 3.69 0 0 0 1.751-3.143c0-1.281-.66-2.472-1.749-3.145m-71.932 89.156c-4.104-.885-6.714-4.93-5.833-9.047c.878-4.112 4.92-6.729 9.023-5.844c4.104.879 6.718 4.931 5.838 9.04c-.88 4.11-4.926 6.73-9.028 5.851m-3.652-24.699a6.93 6.93 0 0 0-8.23 5.332l-3.816 17.807c-11.775 5.344-24.85 8.313-38.621 8.313c-14.086 0-27.446-3.116-39.43-8.688l-3.814-17.806c-.802-3.747-4.486-6.134-8.228-5.33l-15.72 3.376a93 93 0 0 1-8.128-9.58h76.49c.865 0 1.442-.157 1.442-.945v-27.057c0-.787-.577-.944-1.443-.944H106.8v-17.15h24.195c2.208 0 11.809.63 14.878 12.902c.962 3.774 3.072 16.05 4.516 19.98c1.438 4.408 7.293 13.213 13.533 13.213h38.115c.433 0 .895-.049 1.382-.137a94 94 0 0 1-8.669 10.17zm-105.79 24.327c-4.105.886-8.146-1.731-9.029-5.843c-.878-4.119 1.732-8.162 5.836-9.047a7.607 7.607 0 0 1 9.028 5.85c.878 4.11-1.734 8.16-5.836 9.04M43.86 95.986c1.703 3.842-.03 8.345-3.867 10.045c-3.837 1.705-8.328-.03-10.03-3.875a7.615 7.615 0 0 1 3.867-10.045a7.6 7.6 0 0 1 10.03 3.874m-8.918 21.14l16.376-7.277a6.94 6.94 0 0 0 3.524-9.158l-3.372-7.626h13.264v59.788H37.973a93.7 93.7 0 0 1-3.566-25.672c0-3.398.183-6.756.535-10.056m71.862-5.807V93.696h31.586c1.632 0 11.52 1.886 11.52 9.28c0 6.139-7.584 8.34-13.821 8.34zm114.792 15.862q0 3.506-.257 6.948h-9.603c-.961 0-1.348.632-1.348 1.573v4.41c0 10.38-5.853 12.638-10.982 13.213c-4.884.55-10.3-2.045-10.967-5.034c-2.882-16.206-7.683-19.667-15.265-25.648c9.41-5.975 19.2-14.79 19.2-26.59c0-12.74-8.734-20.765-14.688-24.7c-8.352-5.506-17.6-6.61-20.095-6.61H58.279c13.467-15.03 31.719-25.677 52.362-29.551l11.706 12.28a6.923 6.923 0 0 0 9.799.226l13.098-12.528c27.445 5.11 50.682 22.194 64.073 45.633l-8.967 20.253c-1.548 3.505.032 7.604 3.527 9.157l17.264 7.668c.298 3.065.455 6.161.455 9.3M122.352 24.745c3.033-2.905 7.844-2.79 10.748.247c2.898 3.046 2.788 7.862-.252 10.765c-3.033 2.906-7.844 2.793-10.748-.25a7.62 7.62 0 0 1 .252-10.762m88.983 71.61a7.594 7.594 0 0 1 10.028-3.872c3.838 1.702 5.57 6.203 3.867 10.045a7.595 7.595 0 0 1-10.03 3.875c-3.833-1.703-5.565-6.2-3.865-10.048"/></svg></g></g></g><g id="my-svg-service-kafka" class="architecture-service" transform="translate(-7.760044130998601,-74.71766022262437)"><g dy="1em" alignment-baseline="middle" dominant-baseline="middle" text-anchor="middle" transform="translate(40, 80)"><g><rect class="background" style="stroke: none"/><text y="-10.1" style=""><tspan class="text-outer-tspan row" x="0" y="-0.1em" dy="1.1em"><tspan font-style="normal" class="text-inner-tspan" font-weight="normal">Kafka</tspan></tspan></text></g></g><g><g><svg xmlns="http://www.w3.org/2000/svg" width="80" height="80" viewBox="0 0 512 234"><path fill="#1a1919" d="M49.763 20.98c-2.582-2.593-6.165-4.19-10.16-4.19c-3.984 0-7.539 1.597-10.089 4.19h-.065a14.3 14.3 0 0 0-4.172 10.137c0 3.992 1.597 7.562 4.172 10.112l.065.07c2.55 2.57 6.105 4.145 10.09 4.145c3.994 0 7.577-1.575 10.16-4.145l.03-.07c2.585-2.55 4.162-6.12 4.162-10.112c0-3.97-1.577-7.562-4.162-10.137zm-10.16 196.125c3.995 0 7.578-1.627 10.16-4.172l.03-.076c2.586-2.54 4.163-6.133 4.163-10.082c0-3.991-1.577-7.567-4.162-10.154h-.03c-2.583-2.618-6.166-4.2-10.16-4.2c-3.985 0-7.54 1.582-10.09 4.2h-.065a14.32 14.32 0 0 0-4.172 10.154c0 3.95 1.597 7.543 4.172 10.082l.065.076a14.24 14.24 0 0 0 10.09 4.172m78.062-43.41c3.548-.933 6.76-3.21 8.723-6.654l.264-.504c1.745-3.262 2.063-7.034 1.13-10.38a14.15 14.15 0 0 0-6.68-8.716l-.202-.136a14.3 14.3 0 0 0-10.667-1.286c-3.563.89-6.764 3.262-8.715 6.677c-1.976 3.395-2.387 7.296-1.442 10.887c.975 3.533 3.26 6.725 6.677 8.72h.02c3.425 1.969 7.297 2.322 10.892 1.392M54.3 102.265c-3.76-3.75-8.951-6.102-14.695-6.102c-5.737 0-10.912 2.352-14.666 6.103a20.64 20.64 0 0 0-6.048 14.658a20.87 20.87 0 0 0 6.048 14.723c3.754 3.728 8.929 6.058 14.666 6.058c5.744 0 10.934-2.33 14.695-6.058a20.84 20.84 0 0 0 6.058-14.723a20.6 20.6 0 0 0-6.058-14.658m-8.264-24.419a39.4 39.4 0 0 1 21.55 11.133h.043a41 41 0 0 1 2.62 2.906l14.305-8.274a30.4 30.4 0 0 1-.466-17.587c2.038-7.63 6.985-14.46 14.402-18.74l.24-.153c7.337-4.15 15.674-5.014 23.199-2.976a30.88 30.88 0 0 1 18.777 14.417v.023c4.26 7.364 5.123 15.814 3.092 23.421a30.67 30.67 0 0 1-14.402 18.76l-1.954 1.154h-.198c-6.852 3.262-14.387 3.773-21.307 1.95c-5.682-1.504-10.892-4.678-14.974-9.18l-14.285 8.253a39.3 39.3 0 0 1 2.55 13.97c0 4.922-.907 9.671-2.55 14.037l14.285 8.229a30.5 30.5 0 0 1 14.974-9.182a30.5 30.5 0 0 1 23.459 3.107l.473.22v.023c7.134 4.325 11.923 11 13.929 18.54a30.82 30.82 0 0 1-3.092 23.395l-.258.514l-.03-.042c-4.278 7.113-11.022 11.932-18.467 13.97c-7.635 2.014-16.087 1.154-23.461-3.088v-.058c-7.417-4.288-12.364-11.133-14.402-18.748a30.33 30.33 0 0 1 .466-17.559l-14.304-8.254a41 41 0 0 1-2.62 2.861l-.043.045c-5.725 5.745-13.211 9.736-21.551 11.065v16.529c5.942 1.24 11.263 4.212 15.43 8.382l.023.042a30.74 30.74 0 0 1 9.046 21.824c0 8.49-3.46 16.193-9.046 21.782l-.023.088c-5.626 5.586-13.344 9.046-21.861 9.046c-8.473 0-16.21-3.46-21.824-9.046h-.023v-.088c-5.591-5.59-9.059-13.292-9.059-21.782a30.73 30.73 0 0 1 9.06-21.824v-.042h.022c4.164-4.17 9.495-7.141 15.415-8.382v-16.529c-8.337-1.329-15.812-5.32-21.526-11.065l-.06-.045C4.473 137.728.005 127.858.005 116.924c0-10.912 4.468-20.781 11.604-27.945h.06a39.3 39.3 0 0 1 21.526-11.133V61.388a31.26 31.26 0 0 1-15.415-8.402h-.023v-.045c-5.591-5.612-9.059-13.307-9.059-21.824c0-8.473 3.468-16.235 9.06-21.824l.022-.023C23.394 3.661 31.13.204 39.604.204c8.517 0 16.235 3.457 21.861 9.066v.023h.023a30.86 30.86 0 0 1 9.046 21.824c0 8.517-3.46 16.212-9.046 21.824l-.023.045a31.2 31.2 0 0 1-15.43 8.402zm80.353-10.977l-.123-.18c-1.97-3.325-5.12-5.542-8.6-6.497c-3.595-.955-7.467-.554-10.912 1.422h.02c-3.437 1.95-5.737 5.14-6.697 8.715a14.34 14.34 0 0 0 1.442 10.887l.068.088a14.1 14.1 0 0 0 8.647 6.544c3.536 1 7.475.577 10.87-1.399l.183-.088a14.32 14.32 0 0 0 6.496-8.605c.948-3.57.57-7.472-1.394-10.887m63.471 4.833h15.961v48.723l23.018-25.46h19.138l-27.789 29.497l27.905 37.39h-18.276l-23.996-33.398v33.398H189.86zm76.66 56.995c0 8.297 5.967 20.36 20.344 20.36c8.896 0 14.75-4.636 17.787-10.712c1.59-2.948 2.322-6.1 2.568-9.38c.11-3.174-.49-6.474-1.838-9.405c-2.798-6.318-9.01-11.797-18.635-11.797c-12.908 0-20.227 10.466-20.227 20.824zm56.533 33.155h-15.97v-9.623c-4.25 7.782-13.148 11.689-22.533 11.689c-21.446 0-33.99-16.702-33.99-35.574c0-21.07 15.227-35.442 33.99-35.442c12.183 0 19.612 6.457 22.533 11.822v-9.758h15.97zm18.073-54.578h-8.272V94.967h8.272v-3.769c0-19.873 15.112-21.072 26.57-21.205V82.28c-4.03 0-10.601 0-10.601 9.403v3.285h10.601v12.308h-10.601v54.578h-15.97zm37.424-35.572h15.957v48.723l23.023-25.46h19.138l-27.789 29.497l27.9 37.39h-18.276l-23.996-33.398v33.398H378.55zm76.66 56.995c0 8.297 5.965 20.36 20.345 20.36c8.884 0 14.738-4.636 17.78-10.712c1.594-2.948 2.329-6.1 2.57-9.38c.11-3.174-.49-6.474-1.84-9.405c-2.794-6.318-9.005-11.797-18.628-11.797c-12.91 0-20.227 10.466-20.227 20.824zm56.529 33.155h-15.965v-9.623c-4.262 7.782-13.153 11.689-22.533 11.689c-21.446 0-33.98-16.702-33.98-35.574c0-21.07 15.222-35.442 33.98-35.442c12.175 0 19.612 6.457 22.533 11.822v-9.758h15.965z"/></svg></g></g></g><g id="my-svg-service-alerting" class="architecture-service" transform="translate(-7.760044130998601,108.71766022262439)"><g dy="1em" alignment-baseline="middle" dominant-baseline="middle" text-anchor="middle" transform="translate(40, 80)"><g><rect class="background" style="stroke: none"/><text y="-10.1" style=""><tspan class="text-outer-tspan row" x="0" y="-0.1em" dy="1.1em"><tspan font-style="normal" class="text-inner-tspan" font-weight="normal">alerting</tspan></tspan><tspan class="text-outer-tspan row" x="0" y="1em" dy="1.1em"><tspan font-style="normal" class="text-inner-tspan" font-weight="normal">service</tspan></tspan></text></g></g><g><g><svg xmlns="http://www.w3.org/2000/svg" width="80" height="80" viewBox="0 0 256 256"><path d="m254.251 124.862l-10.747-6.653a146 146 0 0 0-.306-3.13l9.236-8.615a3.69 3.69 0 0 0 1.105-3.427a3.69 3.69 0 0 0-2.33-2.744l-11.807-4.415a137 137 0 0 0-.925-3.048l7.365-10.229a3.698 3.698 0 0 0-2.407-5.814l-12.45-2.025c-.484-.944-.988-1.874-1.496-2.796l5.231-11.483a3.68 3.68 0 0 0-.288-3.59a3.68 3.68 0 0 0-3.204-1.642l-12.636.44a100 100 0 0 0-1.996-2.421l2.904-12.308a3.7 3.7 0 0 0-.986-3.466a3.7 3.7 0 0 0-3.464-.986l-12.305 2.901a106 106 0 0 0-2.426-1.996l.442-12.635a3.68 3.68 0 0 0-1.64-3.205a3.69 3.69 0 0 0-3.59-.29l-11.48 5.234a133 133 0 0 0-2.796-1.5l-2.03-12.452a3.7 3.7 0 0 0-5.812-2.407l-10.236 7.365q-1.51-.481-3.042-.922L155.72 4.794a3.69 3.69 0 0 0-2.745-2.336a3.71 3.71 0 0 0-3.424 1.106l-8.615 9.243a111 111 0 0 0-3.13-.306l-6.653-10.75a3.698 3.698 0 0 0-6.289 0l-6.653 10.75a110 110 0 0 0-3.133.306l-8.617-9.243a3.695 3.695 0 0 0-6.169 1.23l-4.414 11.809c-1.023.293-2.035.604-3.045.922L82.599 10.16a3.69 3.69 0 0 0-3.579-.415a3.7 3.7 0 0 0-2.235 2.822l-2.03 12.452c-.94.487-1.869.988-2.796 1.5l-11.481-5.235a3.69 3.69 0 0 0-3.588.291a3.68 3.68 0 0 0-1.642 3.205l.44 12.635a118 118 0 0 0-2.426 1.996l-12.305-2.9a3.71 3.71 0 0 0-3.466.985a3.7 3.7 0 0 0-.986 3.466l2.899 12.308q-1.01 1.196-1.991 2.421l-12.636-.44a3.72 3.72 0 0 0-3.204 1.641a3.7 3.7 0 0 0-.291 3.59l5.234 11.484c-.509.922-1.012 1.852-1.5 2.796l-12.449 2.025a3.7 3.7 0 0 0-2.407 5.814l7.365 10.23q-.482 1.514-.925 3.047l-11.808 4.415a3.702 3.702 0 0 0-1.225 6.171l9.237 8.614c-.115 1.04-.217 2.087-.305 3.131L1.75 124.862A3.7 3.7 0 0 0 0 128.007c0 1.284.663 2.473 1.751 3.143l10.748 6.653q.132 1.572.305 3.131l-9.238 8.617a3.697 3.697 0 0 0 1.226 6.169l11.808 4.415c.294 1.022.605 2.037.925 3.047l-7.365 10.231a3.696 3.696 0 0 0 2.41 5.812l12.447 2.025c.487.944.986 1.874 1.5 2.8l-5.235 11.48a3.69 3.69 0 0 0 .291 3.59a3.68 3.68 0 0 0 3.204 1.641l12.63-.442c.659.821 1.322 1.626 1.997 2.426l-2.899 12.31a3.68 3.68 0 0 0 .986 3.459a3.68 3.68 0 0 0 3.466.983l12.305-2.898c.8.68 1.61 1.34 2.427 1.99l-.44 12.639a3.694 3.694 0 0 0 5.229 3.492l11.481-5.231a106 106 0 0 0 2.796 1.499l2.03 12.445a3.69 3.69 0 0 0 2.235 2.825a3.7 3.7 0 0 0 3.579-.413l10.229-7.37c1.01.32 2.025.633 3.047.927l4.415 11.804a3.69 3.69 0 0 0 2.744 2.331a3.68 3.68 0 0 0 3.425-1.106l8.617-9.238c1.04.12 2.086.22 3.133.313l6.653 10.748a3.7 3.7 0 0 0 3.143 1.75a3.7 3.7 0 0 0 3.145-1.75l6.653-10.748c1.047-.093 2.092-.193 3.131-.313l8.615 9.238a3.68 3.68 0 0 0 3.424 1.106a3.69 3.69 0 0 0 2.744-2.331l4.415-11.804c1.022-.294 2.038-.607 3.048-.927l10.231 7.37a3.7 3.7 0 0 0 5.812-2.412l2.03-12.445c.939-.487 1.868-.993 2.795-1.5l11.481 5.232a3.692 3.692 0 0 0 5.23-3.492l-.44-12.638a99 99 0 0 0 2.423-1.991l12.306 2.898c1.25.294 2.56-.07 3.463-.983a3.68 3.68 0 0 0 .986-3.459l-2.898-12.31c.675-.8 1.34-1.605 1.99-2.426l12.636.442a3.68 3.68 0 0 0 3.204-1.64a3.69 3.69 0 0 0 .289-3.592l-5.232-11.478c.511-.927 1.013-1.857 1.497-2.8l12.45-2.026a3.68 3.68 0 0 0 2.822-2.236a3.7 3.7 0 0 0-.415-3.576l-7.365-10.23q.479-1.516.925-3.048l11.806-4.415a3.68 3.68 0 0 0 2.331-2.745a3.68 3.68 0 0 0-1.106-3.424l-9.235-8.617c.112-1.04.215-2.086.305-3.13l10.748-6.654a3.69 3.69 0 0 0 1.751-3.143c0-1.281-.66-2.472-1.749-3.145m-71.932 89.156c-4.104-.885-6.714-4.93-5.833-9.047c.878-4.112 4.92-6.729 9.023-5.844c4.104.879 6.718 4.931 5.838 9.04c-.88 4.11-4.926 6.73-9.028 5.851m-3.652-24.699a6.93 6.93 0 0 0-8.23 5.332l-3.816 17.807c-11.775 5.344-24.85 8.313-38.621 8.313c-14.086 0-27.446-3.116-39.43-8.688l-3.814-17.806c-.802-3.747-4.486-6.134-8.228-5.33l-15.72 3.376a93 93 0 0 1-8.128-9.58h76.49c.865 0 1.442-.157 1.442-.945v-27.057c0-.787-.577-.944-1.443-.944H106.8v-17.15h24.195c2.208 0 11.809.63 14.878 12.902c.962 3.774 3.072 16.05 4.516 19.98c1.438 4.408 7.293 13.213 13.533 13.213h38.115c.433 0 .895-.049 1.382-.137a94 94 0 0 1-8.669 10.17zm-105.79 24.327c-4.105.886-8.146-1.731-9.029-5.843c-.878-4.119 1.732-8.162 5.836-9.047a7.607 7.607 0 0 1 9.028 5.85c.878 4.11-1.734 8.16-5.836 9.04M43.86 95.986c1.703 3.842-.03 8.345-3.867 10.045c-3.837 1.705-8.328-.03-10.03-3.875a7.615 7.615 0 0 1 3.867-10.045a7.6 7.6 0 0 1 10.03 3.874m-8.918 21.14l16.376-7.277a6.94 6.94 0 0 0 3.524-9.158l-3.372-7.626h13.264v59.788H37.973a93.7 93.7 0 0 1-3.566-25.672c0-3.398.183-6.756.535-10.056m71.862-5.807V93.696h31.586c1.632 0 11.52 1.886 11.52 9.28c0 6.139-7.584 8.34-13.821 8.34zm114.792 15.862q0 3.506-.257 6.948h-9.603c-.961 0-1.348.632-1.348 1.573v4.41c0 10.38-5.853 12.638-10.982 13.213c-4.884.55-10.3-2.045-10.967-5.034c-2.882-16.206-7.683-19.667-15.265-25.648c9.41-5.975 19.2-14.79 19.2-26.59c0-12.74-8.734-20.765-14.688-24.7c-8.352-5.506-17.6-6.61-20.095-6.61H58.279c13.467-15.03 31.719-25.677 52.362-29.551l11.706 12.28a6.923 6.923 0 0 0 9.799.226l13.098-12.528c27.445 5.11 50.682 22.194 64.073 45.633l-8.967 20.253c-1.548 3.505.032 7.604 3.527 9.157l17.264 7.668c.298 3.065.455 6.161.455 9.3M122.352 24.745c3.033-2.905 7.844-2.79 10.748.247c2.898 3.046 2.788 7.862-.252 10.765c-3.033 2.906-7.844 2.793-10.748-.25a7.62 7.62 0 0 1 .252-10.762m88.983 71.61a7.594 7.594 0 0 1 10.028-3.872c3.838 1.702 5.57 6.203 3.867 10.045a7.595 7.595 0 0 1-10.03 3.875c-3.833-1.703-5.565-6.2-3.865-10.048"/></svg></g></g></g><g id="my-svg-service-processor" class="architecture-service" transform="translate(175.02041956278154,-74.71766022262437)"><g dy="1em" alignment-baseline="middle" dominant-baseline="middle" text-anchor="middle" transform="translate(40, 80)"><g><rect class="background" style="stroke: none"/><text y="-10.1" style=""><tspan class="text-outer-tspan row" x="0" y="-0.1em" dy="1.1em"><tspan font-style="normal" class="text-inner-tspan" font-weight="normal">processor</tspan></tspan><tspan class="text-outer-tspan row" x="0" y="1em" dy="1.1em"><tspan font-style="normal" class="text-inner-tspan" font-weight="normal">service</tspan></tspan></text></g></g><g><g><svg xmlns="http://www.w3.org/2000/svg" width="80" height="80" viewBox="0 0 256 256"><path d="m254.251 124.862l-10.747-6.653a146 146 0 0 0-.306-3.13l9.236-8.615a3.69 3.69 0 0 0 1.105-3.427a3.69 3.69 0 0 0-2.33-2.744l-11.807-4.415a137 137 0 0 0-.925-3.048l7.365-10.229a3.698 3.698 0 0 0-2.407-5.814l-12.45-2.025c-.484-.944-.988-1.874-1.496-2.796l5.231-11.483a3.68 3.68 0 0 0-.288-3.59a3.68 3.68 0 0 0-3.204-1.642l-12.636.44a100 100 0 0 0-1.996-2.421l2.904-12.308a3.7 3.7 0 0 0-.986-3.466a3.7 3.7 0 0 0-3.464-.986l-12.305 2.901a106 106 0 0 0-2.426-1.996l.442-12.635a3.68 3.68 0 0 0-1.64-3.205a3.69 3.69 0 0 0-3.59-.29l-11.48 5.234a133 133 0 0 0-2.796-1.5l-2.03-12.452a3.7 3.7 0 0 0-5.812-2.407l-10.236 7.365q-1.51-.481-3.042-.922L155.72 4.794a3.69 3.69 0 0 0-2.745-2.336a3.71 3.71 0 0 0-3.424 1.106l-8.615 9.243a111 111 0 0 0-3.13-.306l-6.653-10.75a3.698 3.698 0 0 0-6.289 0l-6.653 10.75a110 110 0 0 0-3.133.306l-8.617-9.243a3.695 3.695 0 0 0-6.169 1.23l-4.414 11.809c-1.023.293-2.035.604-3.045.922L82.599 10.16a3.69 3.69 0 0 0-3.579-.415a3.7 3.7 0 0 0-2.235 2.822l-2.03 12.452c-.94.487-1.869.988-2.796 1.5l-11.481-5.235a3.69 3.69 0 0 0-3.588.291a3.68 3.68 0 0 0-1.642 3.205l.44 12.635a118 118 0 0 0-2.426 1.996l-12.305-2.9a3.71 3.71 0 0 0-3.466.985a3.7 3.7 0 0 0-.986 3.466l2.899 12.308q-1.01 1.196-1.991 2.421l-12.636-.44a3.72 3.72 0 0 0-3.204 1.641a3.7 3.7 0 0 0-.291 3.59l5.234 11.484c-.509.922-1.012 1.852-1.5 2.796l-12.449 2.025a3.7 3.7 0 0 0-2.407 5.814l7.365 10.23q-.482 1.514-.925 3.047l-11.808 4.415a3.702 3.702 0 0 0-1.225 6.171l9.237 8.614c-.115 1.04-.217 2.087-.305 3.131L1.75 124.862A3.7 3.7 0 0 0 0 128.007c0 1.284.663 2.473 1.751 3.143l10.748 6.653q.132 1.572.305 3.131l-9.238 8.617a3.697 3.697 0 0 0 1.226 6.169l11.808 4.415c.294 1.022.605 2.037.925 3.047l-7.365 10.231a3.696 3.696 0 0 0 2.41 5.812l12.447 2.025c.487.944.986 1.874 1.5 2.8l-5.235 11.48a3.69 3.69 0 0 0 .291 3.59a3.68 3.68 0 0 0 3.204 1.641l12.63-.442c.659.821 1.322 1.626 1.997 2.426l-2.899 12.31a3.68 3.68 0 0 0 .986 3.459a3.68 3.68 0 0 0 3.466.983l12.305-2.898c.8.68 1.61 1.34 2.427 1.99l-.44 12.639a3.694 3.694 0 0 0 5.229 3.492l11.481-5.231a106 106 0 0 0 2.796 1.499l2.03 12.445a3.69 3.69 0 0 0 2.235 2.825a3.7 3.7 0 0 0 3.579-.413l10.229-7.37c1.01.32 2.025.633 3.047.927l4.415 11.804a3.69 3.69 0 0 0 2.744 2.331a3.68 3.68 0 0 0 3.425-1.106l8.617-9.238c1.04.12 2.086.22 3.133.313l6.653 10.748a3.7 3.7 0 0 0 3.143 1.75a3.7 3.7 0 0 0 3.145-1.75l6.653-10.748c1.047-.093 2.092-.193 3.131-.313l8.615 9.238a3.68 3.68 0 0 0 3.424 1.106a3.69 3.69 0 0 0 2.744-2.331l4.415-11.804c1.022-.294 2.038-.607 3.048-.927l10.231 7.37a3.7 3.7 0 0 0 5.812-2.412l2.03-12.445c.939-.487 1.868-.993 2.795-1.5l11.481 5.232a3.692 3.692 0 0 0 5.23-3.492l-.44-12.638a99 99 0 0 0 2.423-1.991l12.306 2.898c1.25.294 2.56-.07 3.463-.983a3.68 3.68 0 0 0 .986-3.459l-2.898-12.31c.675-.8 1.34-1.605 1.99-2.426l12.636.442a3.68 3.68 0 0 0 3.204-1.64a3.69 3.69 0 0 0 .289-3.592l-5.232-11.478c.511-.927 1.013-1.857 1.497-2.8l12.45-2.026a3.68 3.68 0 0 0 2.822-2.236a3.7 3.7 0 0 0-.415-3.576l-7.365-10.23q.479-1.516.925-3.048l11.806-4.415a3.68 3.68 0 0 0 2.331-2.745a3.68 3.68 0 0 0-1.106-3.424l-9.235-8.617c.112-1.04.215-2.086.305-3.13l10.748-6.654a3.69 3.69 0 0 0 1.751-3.143c0-1.281-.66-2.472-1.749-3.145m-71.932 89.156c-4.104-.885-6.714-4.93-5.833-9.047c.878-4.112 4.92-6.729 9.023-5.844c4.104.879 6.718 4.931 5.838 9.04c-.88 4.11-4.926 6.73-9.028 5.851m-3.652-24.699a6.93 6.93 0 0 0-8.23 5.332l-3.816 17.807c-11.775 5.344-24.85 8.313-38.621 8.313c-14.086 0-27.446-3.116-39.43-8.688l-3.814-17.806c-.802-3.747-4.486-6.134-8.228-5.33l-15.72 3.376a93 93 0 0 1-8.128-9.58h76.49c.865 0 1.442-.157 1.442-.945v-27.057c0-.787-.577-.944-1.443-.944H106.8v-17.15h24.195c2.208 0 11.809.63 14.878 12.902c.962 3.774 3.072 16.05 4.516 19.98c1.438 4.408 7.293 13.213 13.533 13.213h38.115c.433 0 .895-.049 1.382-.137a94 94 0 0 1-8.669 10.17zm-105.79 24.327c-4.105.886-8.146-1.731-9.029-5.843c-.878-4.119 1.732-8.162 5.836-9.047a7.607 7.607 0 0 1 9.028 5.85c.878 4.11-1.734 8.16-5.836 9.04M43.86 95.986c1.703 3.842-.03 8.345-3.867 10.045c-3.837 1.705-8.328-.03-10.03-3.875a7.615 7.615 0 0 1 3.867-10.045a7.6 7.6 0 0 1 10.03 3.874m-8.918 21.14l16.376-7.277a6.94 6.94 0 0 0 3.524-9.158l-3.372-7.626h13.264v59.788H37.973a93.7 93.7 0 0 1-3.566-25.672c0-3.398.183-6.756.535-10.056m71.862-5.807V93.696h31.586c1.632 0 11.52 1.886 11.52 9.28c0 6.139-7.584 8.34-13.821 8.34zm114.792 15.862q0 3.506-.257 6.948h-9.603c-.961 0-1.348.632-1.348 1.573v4.41c0 10.38-5.853 12.638-10.982 13.213c-4.884.55-10.3-2.045-10.967-5.034c-2.882-16.206-7.683-19.667-15.265-25.648c9.41-5.975 19.2-14.79 19.2-26.59c0-12.74-8.734-20.765-14.688-24.7c-8.352-5.506-17.6-6.61-20.095-6.61H58.279c13.467-15.03 31.719-25.677 52.362-29.551l11.706 12.28a6.923 6.923 0 0 0 9.799.226l13.098-12.528c27.445 5.11 50.682 22.194 64.073 45.633l-8.967 20.253c-1.548 3.505.032 7.604 3.527 9.157l17.264 7.668c.298 3.065.455 6.161.455 9.3M122.352 24.745c3.033-2.905 7.844-2.79 10.748.247c2.898 3.046 2.788 7.862-.252 10.765c-3.033 2.906-7.844 2.793-10.748-.25a7.62 7.62 0 0 1 .252-10.762m88.983 71.61a7.594 7.594 0 0 1 10.028-3.872c3.838 1.702 5.57 6.203 3.867 10.045a7.595 7.595 0 0 1-10.03 3.875c-3.833-1.703-5.565-6.2-3.865-10.048"/></svg></g></g></g><g id="my-svg-service-clients" class="architecture-service" transform="translate(405.08952174504725,-74.71766022262437)"><g dy="1em" alignment-baseline="middle" dominant-baseline="middle" text-anchor="middle" transform="translate(40, 80)"><g><rect class="background" style="stroke: none"/><text y="-10.1" style=""><tspan class="text-outer-tspan row" x="0" y="-0.1em" dy="1.1em"><tspan font-style="normal" class="text-inner-tspan" font-weight="normal">SSE</tspan><tspan font-style="normal" class="text-inner-tspan" font-weight="normal"> Clients</tspan></tspan></text></g></g><g><g><svg xmlns="http://www.w3.org/2000/svg" width="80" height="80" viewBox="0 0 24 24"><path fill="currentColor" d="M16 17v2H2v-2s0-4 7-4s7 4 7 4m-3.5-9.5A3.5 3.5 0 1 0 9 11a3.5 3.5 0 0 0 3.5-3.5m3.44 5.5A5.32 5.32 0 0 1 18 17v2h4v-2s0-3.63-6.06-4M15 4a3.4 3.4 0 0 0-1.93.59a5 5 0 0 1 0 5.82A3.4 3.4 0 0 0 15 11a3.5 3.5 0 0 0 0-7"/></svg></g></g></g></g><g class="architecture-groups"><rect id="my-svg-group-compose" x="-278.09138831674977" y="-117.21766022262437" width="607.1118078795313" height="365.43532044524875" class="node-bkg"/><g><g dy="1em" alignment-baseline="middle" dominant-baseline="start" text-anchor="start" transform="translate(-274.09138831674977, -115.21766022262437)"><g><rect class="background" style="stroke: none"/><text y="-10.1" style=""><tspan class="text-outer-tspan row" x="0" y="-0.1em" dy="1.1em"><tspan font-style="normal" class="text-inner-tspan" font-weight="normal">Docker</tspan><tspan font-style="normal" class="text-inner-tspan" font-weight="normal"> Compose</tspan></tspan></text></g></g></g></g></svg>