<svg id="my-svg" width="750" height="506" xmlns="http://www.w3.org/2000/svg" xmlns:xlink="http://www.w3.org/1999/xlink" style="background-color: white;" viewBox="-476.0692138671875 -271.1341094970703 1000.638427734375 676.2682495117188" role="graphics-document document" aria-roledescription="architecture"><style>#my-svg{font-family:"trebuchet ms",verdana,arial,sans-serif;font-size:16px;fill:#333;}@keyframes edge-animation-frame{from{stroke-dashoffset:0;}}@keyframes dash{to{stroke-dashoffset:0;}}#my-svg .edge-animation-slow{stroke-dasharray:9,5!important;stroke-dashoffset:900;animation:dash 50s linear infinite;stroke-linecap:round;}#my-svg .edge-animation-fast{stroke-dasharray:9,5!important;stroke-dashoffset:900;animation:dash 20s linear infinite;stroke-linecap:round;}#my-svg .error-icon{fill:#552222;}#my-svg .error-text{fill:#552222;stroke:#552222;}#my-svg .edge-thickness-normal{stroke-width:1px;}#my-svg .edge-thickness-thick{stroke-width:3.5px;}#my-svg .edge-pattern-solid{stroke-dasharray:0;}#my-svg .edge-thickness-invisible{stroke-width:0;fill:none;}#my-svg .edge-pattern-dashed{stroke-dasharray:3;}#my-svg .edge-pattern-dotted{stroke-dasharray:2;}#my-svg .marker{fill:#333333;stroke:#333333;}#my-svg .marker.cross{stroke:#333333;}#my-svg svg{font-family:"trebuchet ms",verdana,arial,sans-serif;font-size:16px;}#my-svg p{margin:0;}#my-svg .edge{stroke-width:3;stroke:#333333;fill:none;}#my-svg .arrow{fill:#333333;}#my-svg .node-bkg{fill:none;stroke:hsl(240, 60%, 86.2745098039%);stroke-width:2px;stroke-dasharray:8;}#my-svg .node-icon-text{display:flex;align-items:center;}#my-svg .node-icon-text&gt;div{color:#fff;margin:1px;height:fit-content;text-align:center;overflow:hidden;display:-webkit-box;-webkit-box-orient:vertical;}#my-svg .node .neo-node{stroke:#9370DB;}#my-svg [data-look="neo"].node rect,#my-svg [data-look="neo"].cluster rect,#my-svg [data-look="neo"].node polygon{stroke:#9370DB;filter:drop-shadow(1px 2px 2px rgba(185, 185, 185, 1));}#my-svg [data-look="neo"].node path{stroke:#9370DB;stroke-width:1px;}#my-svg [data-look="neo"].node .outer-path{filter:drop-shadow(1px 2px 2px rgba(185, 185, 185, 1));}#my-svg [data-look="neo"].node .neo-line path{stroke:#9370DB;filter:none;}#my-svg [data-look="neo"].node circle{stroke:#9370DB;filter:drop-shadow(1px 2px 2px rgba(185, 185, 185, 1));}#my-svg [data-look="neo"].node circle .state-start{fill:#000000;}#my-svg [data-look="neo"].icon-shape .icon{fill:#9370DB;filter:drop-shadow(1px 2px 2px rgba(185, 185, 185, 1));}#my-svg [data-look="neo"].icon-shape .icon-neo path{stroke:#9370DB;filter:drop-shadow(1px 2px 2px rgba(185, 185, 185, 1));}#my-svg :root{--mermaid-font-family:"trebuchet ms",verdana,arial,sans-serif;}</style><g/><g class="architecture-edges"><g><path d="M -293.06920519372704,182.6341156939373 L -170.67992222297715,182.6341156939373 L-48.290639252227265,182.6341156939373" class="edge" id="my-svg-L_gha_sb_0"/><polygon points="13.333333333333334,6.666666666666667 0,13.333333333333334 0,0" transform="translate(-59.6239725855606,175.96744902727065)" class="arrow"/></g><g><path d="M 31.709360747772735,182.63411569393728 L 172.8892829707499,59.8717460073431 L314.06920519372704,-62.89062367925109" class="edge" id="my-svg-L_sb_ddb_0"/><polygon points="13.333333333333334,6.666666666666667 0,13.333333333333334 0,0" transform="translate(302.73587186039373,-69.55729034591776)" class="arrow"/></g><g><path d="M 31.709360747772735,182.6341156939373 L 132.11045389407045,182.6341156939373 L232.51154704036816,182.6341156939373" class="edge" id="my-svg-L_sb_sns_0"/><polygon points="13.333333333333334,6.666666666666667 0,13.333333333333334 0,0" transform="translate(221.1782137070348,175.96744902727065)" class="arrow"/></g><g><path d="M -8.290639252227265,142.6341156939373 L -8.290639252227265,37.75000000000003 L-8.290639252227265,-67.13411569393725" class="edge" id="my-svg-L_sb_cw_0"/><polygon points="6.666666666666667,0 13.333333333333334,13.333333333333334 0,13.333333333333334" transform="translate(-14.957305918893933,-69.13411569393725)" class="arrow"/></g></g><g class="architecture-services"><g id="my-svg-service-gha" class="architecture-service" transform="translate(-373.06920519372704,142.6341156939373)"><g dy="1em" alignment-baseline="middle" dominant-baseline="middle" text-anchor="middle" transform="translate(40, 80)"><g><rect class="background" style="stroke: none"/><text y="-10.1" style=""><tspan class="text-outer-tspan row" x="0" y="-0.1em" dy="1.1em"><tspan font-style="normal" class="text-inner-tspan" font-weight="normal">GitHub</tspan><tspan font-style="normal" class="text-inner-tspan" font-weight="normal"> Actions</tspan></tspan></text></g></g><g><g><svg xmlns="http://www.w3.org/2000/svg" width="80" height="80" viewBox="0 0 256 256"><path fill="#4a7ebf" d="M53.604 0c29.604 0 53.604 23.992 53.604 53.59c0 29.09-23.189 52.75-52.093 53.553c0 2.461.109 7.111 1.501 9.92c1.933 3.893 13.525 11.144 24.892 11.144h4.084c2.567-18.271 18.257-32.332 37.24-32.332c18.906 0 34.55 13.946 37.211 32.11h21.13c2.661-18.164 18.304-32.11 37.21-32.11c20.775 0 37.617 16.837 37.617 37.607s-16.842 37.606-37.617 37.606c-18.906 0-34.55-13.948-37.21-32.11h-21.129c-2.66 18.162-18.305 32.11-37.212 32.11c-18.87 0-34.494-13.893-37.199-32.007l-4.515.135c-7.435-.056-15.29-2.042-21.598-6.328c-1.72-1.169-3.415-2.397-5.182-3.56v2.441c-.01.79-.153 12.657-.164 25.833v2.79c.005 8.641.073 17.545.277 24.04c.446 14.246 12.034 25.745 24.822 28.436c1.663.35 4.52.394 6.321.238c2.571-18.264 18.26-32.32 37.238-32.32c20.774 0 37.616 16.838 37.616 37.607c0 20.77-16.842 37.607-37.616 37.607c-18.769 0-34.323-13.744-37.153-31.714h-3.254c-24.436-1.334-39.628-23.746-39.363-41.923c.334-22.877.082-45.764.079-68.646v-7.565C18.546 101.286 0 79.606 0 53.591C0 23.992 23.999 0 53.604 0m69.228 191.78c-14.701 0-26.62 11.915-26.62 26.613s11.919 26.614 26.62 26.614s26.62-11.915 26.62-26.614c0-14.698-11.918-26.614-26.62-26.614m0-84.912c-14.701 0-26.62 11.915-26.62 26.614c0 14.697 11.919 26.613 26.62 26.613s26.62-11.916 26.62-26.613c0-14.699-11.918-26.614-26.62-26.614m95.551 0c-14.702 0-26.62 11.915-26.62 26.614c0 14.697 11.918 26.613 26.62 26.613s26.621-11.916 26.621-26.613c0-14.699-11.918-26.614-26.62-26.614m15.161 15.408a5.496 5.496 0 0 1 .17 7.606l-.16.168l-16.31 16.345a5.5 5.5 0 0 1-7.576.198l-.172-.163l-7.985-7.86a5.496 5.496 0 0 1-.06-7.773a5.5 5.5 0 0 1 7.606-.22l.168.16l4.092 4.027l12.452-12.477a5.5 5.5 0 0 1 7.775-.01m-95.99-.08a5.497 5.497 0 0 1 .17 7.606l-.16.168l-16.31 16.344a5.5 5.5 0 0 1-7.576.198l-.172-.163l-7.985-7.86a5.498 5.498 0 0 1 7.546-7.992l.168.16l4.093 4.027l12.451-12.478a5.5 5.5 0 0 1 7.775-.01M53.604 10.993c-23.532 0-42.608 19.07-42.608 42.598c0 23.525 19.076 42.597 42.608 42.597s42.608-19.072 42.608-42.597c0-23.527-19.076-42.598-42.608-42.598M49.171 28.13A744 744 0 0 1 75.7 44.841c7.308 4.82 7.29 13.563-.1 18.394a609 609 0 0 1-27.058 16.712c-7.455 4.34-15.8-.65-16.002-9.344c-.13-5.602-.024-11.21-.032-16.817c-.006-5.454-.113-10.911.019-16.363c.222-9.248 8.736-14.066 16.643-9.293m-5.91 8.872v3.868l-.001 5.674l-.001 3.71v5.482c0 4.23.002 8.394.01 12.557c.003 1.96 1.023 1.88 2.343 1.063q11.408-7.071 22.827-14.127c1.258-.776 1.294-1.587.06-2.365c-8.154-5.139-16.318-10.26-25.238-15.862"/><path fill="#85b3df" d="M133.227 223.88a5.497 5.497 0 1 0 .001-10.996a5.497 5.497 0 0 0 0 10.995m-21.049.001a5.497 5.497 0 1 0 0-10.996a5.497 5.497 0 0 0 0 10.995m106.205 21.128c-14.702 0-26.62-11.915-26.62-26.614c0-14.698 11.918-26.614 26.62-26.614c14.701 0 26.62 11.916 26.62 26.614s-11.919 26.614-26.62 26.614m0-64.22c-18.906 0-34.55 13.947-37.211 32.11h-6.153c-2.685 0-4.864 2.461-4.864 5.496s2.179 5.497 4.864 5.497h6.153c2.66 18.163 18.305 32.11 37.21 32.11C239.159 256 256 239.162 256 218.393c0-20.77-16.842-37.607-37.616-37.607"/></svg></g></g></g><g id="my-svg-service-sb" class="architecture-service" transform="translate(-48.290639252227265,142.6341156939373)"><g dy="1em" alignment-baseline="middle" dominant-baseline="middle" text-anchor="middle" transform="translate(40, 80)"><g><rect class="background" style="stroke: none"/><text y="-10.1" style=""><tspan class="text-outer-tspan row" x="0" y="-0.1em" dy="1.1em"><tspan font-style="normal" class="text-inner-tspan" font-weight="normal">Spring</tspan><tspan font-style="normal" class="text-inner-tspan" font-weight="normal"> Boot</tspan></tspan></text></g></g><g><g><svg xmlns="http://www.w3.org/2000/svg" width="80" height="80" viewBox="0 0 256 256"><path fill="#6db33f" d="M38.944 35.879c50.58-48.999 131.454-47.682 180.453 3.161c5.532-7.376 10.274-15.542 13.699-23.972c16.07 48.999 25.817 90.095 22.128 121.97c-1.844 26.87-12.381 52.687-29.768 73.235c-45.31 53.741-125.922 60.59-179.663 15.28l-1.028-.915l-.055-.036q-.252-.176-.498-.367q-.735-.573-1.336-1.24l-.144-.164l-1.68-1.493c-1.64-1.405-3.279-2.81-4.733-4.4l-.536-.606c-49-50.58-47.419-131.454 3.16-180.453M57.91 207.376c-4.742-3.688-11.591-3.162-15.28 1.58c-3.242 4.17-3.226 9.969.049 13.815l.052.06l2.033 1.807l.2.136c4.604 3.028 10.8 2.402 14.333-1.878l.194-.241c3.688-4.742 2.898-11.591-1.58-15.28M231.78 28.239c-13.173 27.661-45.84 48.736-74.027 55.322c-26.607 6.322-49.79 1.054-74.289 10.537c-55.848 21.339-54.794 87.724-24.236 102.74l1.844 1.054s22.074-4.389 43.902-10.185l1.87-.5c8.718-2.35 17.295-4.91 24.302-7.492c36.354-13.435 76.397-46.628 89.568-85.09c-6.849 40.042-41.359 78.767-75.87 96.418c-18.44 9.483-32.665 11.59-62.96 22.128c-3.688 1.317-6.586 2.635-6.586 2.635l1.108-.15l.736-.095l.733-.092c6.69-.83 12.702-1.244 12.702-1.244c42.94-2.108 110.38 12.118 141.729-29.768c32.139-42.677 14.225-111.697-.527-156.218"/><path fill="#fff" d="M57.911 207.376c4.479 3.688 5.269 10.537 1.58 15.279c-3.687 4.742-10.537 5.269-15.279 1.58s-5.268-10.537-1.58-15.279s10.537-5.268 15.28-1.58M231.78 28.239c14.752 44.521 32.666 113.541.527 156.218c-31.35 41.886-98.789 27.66-141.729 29.768c0 0-6.012.415-12.702 1.244l-.733.092q-.919.117-1.844.245s2.898-1.318 6.586-2.635c30.295-10.537 44.52-12.645 62.96-22.128c34.511-17.65 69.021-56.376 75.87-96.418c-13.171 38.462-53.214 71.655-89.568 85.09c-25.026 9.22-70.074 18.177-70.074 18.177l-1.844-1.054c-30.558-15.016-31.612-81.401 24.236-102.74c24.5-9.483 47.682-4.215 74.29-10.537c28.187-6.586 60.853-27.66 74.025-55.322"/></svg></g></g></g><g id="my-svg-service-ddb" class="architecture-service" transform="translate(314.06920519372704,-102.89062367925109)"><g dy="1em" alignment-baseline="middle" dominant-baseline="middle" text-anchor="middle" transform="translate(40, 80)"><g><rect class="background" style="stroke: none"/><text y="-10.1" style=""><tspan class="text-outer-tspan row" x="0" y="-0.1em" dy="1.1em"><tspan font-style="normal" class="text-inner-tspan" font-weight="normal">DynamoDB</tspan></tspan></text></g></g><g><g><svg xmlns="http://www.w3.org/2000/svg" width="80" height="80" viewBox="0 0 256 256"><defs><linearGradient id="IconifyId19eaf6aa52d6826c90" x1="0%" x2="100%" y1="100%" y2="0%"><stop offset="0%" stop-color="#2e27ad"/><stop offset="100%" stop-color="#527fff"/></linearGradient></defs><path fill="url(#IconifyId19eaf6aa52d6826c90)" d="M0 0h256v256H0z"/><path fill="#fff" d="M166.675 175.52c-10.682 8.637-33.091 13.2-54.534 13.2c-21.447 0-43.863-4.566-54.541-13.202v17.392h.003c0 8.675 22.397 18.342 54.538 18.342c32.115 0 54.499-9.655 54.534-18.323zm.003-33.049l6.4-.035v.035c0 3.866-1.936 7.475-5.705 10.779c4.57 4.021 5.705 7.966 5.705 10.775c0 .02-.003.035-.003.054v28.831h.003c0 16.035-31.398 24.69-60.937 24.69c-29.469 0-60.781-8.617-60.931-24.578c0-.016-.01-.032-.01-.048v-28.958c0-.007.006-.016.006-.026c.01-2.809 1.15-6.738 5.712-10.75c-4.534-4.005-5.686-7.912-5.715-10.699h.003c0-.013-.006-.022-.006-.035v-28.958c0-.01.006-.02.006-.029c.01-2.809 1.152-6.738 5.716-10.743c-4.538-4.009-5.69-7.92-5.719-10.703h.003c0-.012-.006-.025-.006-.038V63.08c0-.01.006-.019.006-.029C51.261 47.04 82.624 38.4 112.141 38.4c16.675 0 32.694 2.65 43.948 7.271l-2.448 5.866c-10.505-4.314-25.632-6.79-41.5-6.79c-32.141 0-54.538 9.668-54.538 18.349c0 8.677 22.397 18.345 54.538 18.345c.867.01 1.715 0 2.573-.032l.268 6.342c-.947.038-1.894.038-2.841.038c-21.447 0-43.863-4.568-54.541-13.204V91.97h.003v.073c.032 3.329 3.447 6.236 6.307 8.083c8.608 5.488 24.032 9.236 41.232 10.014l-.29 6.341c-17.425-.79-32.682-4.405-42.503-9.946c-2.42 1.809-4.746 4.256-4.746 7.03c0 8.677 22.397 18.345 54.538 18.345c3.152 0 6.281-.105 9.305-.315l.445 6.332c-3.168.22-6.451.33-9.75.33c-21.447 0-43.863-4.567-54.541-13.203v17.383h.003c.032 3.403 3.447 6.307 6.307 8.157c9.844 6.281 28.327 10.192 48.23 10.192h1.409v6.347h-1.408c-20.221 0-38.599-3.754-49.837-10.099c-2.406 1.806-4.7 4.24-4.7 6.992c0 8.677 22.396 18.348 54.537 18.348c32.115 0 54.499-9.655 54.534-18.326v-.035c-.006-2.758-2.31-5.192-4.723-6.998a45 45 0 0 1-5.14 2.523l-2.45-5.865c2.323-.955 4.339-1.987 5.993-3.072c2.886-1.883 6.323-4.825 6.323-8.129m27.411-46.418h-17.932c-1.06 0-2.055-.52-2.647-1.39a3.14 3.14 0 0 1-.33-2.951l10.91-27.27h-41.31l-19.2 38.086h20.423c1.02 0 1.98.486 2.586 1.301c.598.82.774 1.87.464 2.838l-18.228 56.818zm9.821-.974l-79.996 82.648a3.22 3.22 0 0 1-2.31.974a3.2 3.2 0 0 1-1.636-.444a3.16 3.16 0 0 1-1.414-3.692l21.075-65.69h-21.226a3.21 3.21 0 0 1-2.723-1.504a3.15 3.15 0 0 1-.138-3.088l22.4-44.434a3.2 3.2 0 0 1 2.861-1.755h48a3.21 3.21 0 0 1 2.646 1.39a3.15 3.15 0 0 1 .33 2.955L180.87 89.706h20.73c1.28 0 2.441.761 2.944 1.93a3.16 3.16 0 0 1-.634 3.443M62.256 194.158c4.534 2.555 10.243 4.703 16.966 6.38l1.562-6.158c-6.077-1.514-11.389-3.5-15.366-5.742zm16.966-44.403l1.562-6.154c-6.077-1.517-11.389-3.504-15.366-5.745l-3.162 5.52c4.534 2.555 10.24 4.704 16.966 6.38M62.256 92.594l3.162-5.52c3.97 2.241 9.286 4.225 15.366 5.745l-1.562 6.154c-6.732-1.679-12.438-3.827-16.966-6.38"/></svg></g></g></g><g id="my-svg-service-sns" class="architecture-service" transform="translate(232.51154704036816,142.6341156939373)"><g dy="1em" alignment-baseline="middle" dominant-baseline="middle" text-anchor="middle" transform="translate(40, 80)"><g><rect class="background" style="stroke: none"/><text y="-10.1" style=""><tspan class="text-outer-tspan row" x="0" y="-0.1em" dy="1.1em"><tspan font-style="normal" class="text-inner-tspan" font-weight="normal">SNS</tspan></tspan></text></g></g><g><g><svg xmlns="http://www.w3.org/2000/svg" width="80" height="80" viewBox="0 0 256 256"><defs><linearGradient id="IconifyId19eaf6aa52d6826c91" x1="0%" x2="100%" y1="100%" y2="0%"><stop offset="0%" stop-color="#b0084d"/><stop offset="100%" stop-color="#ff4f8b"/></linearGradient></defs><path fill="url(#IconifyId19eaf6aa52d6826c91)" d="M0 0h256v256H0z"/><path fill="#fff" d="M54.4 121.6c3.53 0 6.4 2.87 6.4 6.4s-2.87 6.4-6.4 6.4s-6.4-2.87-6.4-6.4s2.87-6.4 6.4-6.4m76.8 83.2c-37.395 0-69.475-27.309-76.18-64.064c5.668-.275 10.346-4.227 11.722-9.536H86.4v-6.4H66.742c-1.376-5.306-6.05-9.258-11.718-9.536C61.712 79.072 94.435 51.2 131.2 51.2c13.802 0 28.262 5.19 42.973 15.427l3.654-5.254C162.026 50.378 146.336 44.8 131.2 44.8c-40.736 0-76.963 31.568-82.998 72.067C44.285 119.062 41.6 123.2 41.6 128s2.685 8.938 6.602 11.13c6.102 41.161 41.577 72.07 82.998 72.07c17.302 0 35.014-5.898 49.872-16.605l-3.744-5.19c-13.776 9.93-30.157 15.395-46.128 15.395m-34.877-88.186c5.933 1.45 13.357 1.786 18.877 1.786c5.254 0 12.234-.304 18.013-1.58l-14.477 28.95c-.22.441-.336.934-.336 1.43v14.25c-2.563 1.635-6.934 4.348-9.6 4.905V147.2c0-.422-.083-.842-.246-1.232zM115.2 105.6c12.88 0 19.757 1.933 21.891 3.2c-2.134 1.267-9.011 3.2-21.891 3.2s-19.757-1.933-21.891-3.2c2.134-1.267 9.011-3.2 21.891-3.2m-9.6 67.2h3.2q.207-.001.41-.026c3.916-.508 8.899-3.536 13.26-6.332l.842-.538a3.21 3.21 0 0 0 1.488-2.704v-15.245l17.789-35.571c.877-1.02 1.411-2.195 1.411-3.584c0-8.352-18.045-9.6-28.8-9.6s-28.8 1.248-28.8 9.6c0 1.171.384 2.189 1.024 3.094L102.4 147.84v21.76a3.2 3.2 0 0 0 3.2 3.2m92.8-3.2c3.53 0 6.4 2.87 6.4 6.4s-2.87 6.4-6.4 6.4s-6.4-2.87-6.4-6.4s2.87-6.4 6.4-6.4m0-96c3.53 0 6.4 2.87 6.4 6.4s-2.87 6.4-6.4 6.4s-6.4-2.87-6.4-6.4s2.87-6.4 6.4-6.4m6.4 48c3.53 0 6.4 2.87 6.4 6.4s-2.87 6.4-6.4 6.4s-6.4-2.87-6.4-6.4s2.87-6.4 6.4-6.4m-32 9.6h19.658c1.427 5.504 6.396 9.6 12.342 9.6c7.06 0 12.8-5.74 12.8-12.8s-5.74-12.8-12.8-12.8c-5.946 0-10.915 4.096-12.342 9.6H172.8V83.2h13.258c1.427 5.504 6.396 9.6 12.342 9.6c7.06 0 12.8-5.74 12.8-12.8s-5.74-12.8-12.8-12.8c-5.946 0-10.915 4.096-12.342 9.6H169.6a3.2 3.2 0 0 0-3.2 3.2v44.8H144v6.4h22.4V176a3.2 3.2 0 0 0 3.2 3.2h16.458c1.427 5.504 6.396 9.6 12.342 9.6c7.06 0 12.8-5.74 12.8-12.8s-5.74-12.8-12.8-12.8c-5.946 0-10.915 4.096-12.342 9.6H172.8z"/></svg></g></g></g><g id="my-svg-service-cw" class="architecture-service" transform="translate(-48.290639252227265,-147.13411569393725)"><g dy="1em" alignment-baseline="middle" dominant-baseline="middle" text-anchor="middle" transform="translate(40, 80)"><g><rect class="background" style="stroke: none"/><text y="-10.1" style=""><tspan class="text-outer-tspan row" x="0" y="-0.1em" dy="1.1em"><tspan font-style="normal" class="text-inner-tspan" font-weight="normal">CloudWatch</tspan></tspan></text></g></g><g><g><svg xmlns="http://www.w3.org/2000/svg" width="80" height="80" viewBox="0 0 256 256"><defs><linearGradient id="IconifyId19eaf6aa52d6826c92" x1="0%" x2="100%" y1="100%" y2="0%"><stop offset="0%" stop-color="#b0084d"/><stop offset="100%" stop-color="#ff4f8b"/></linearGradient></defs><path fill="url(#IconifyId19eaf6aa52d6826c92)" d="M0 0h256v256H0z"/><path fill="#fff" d="M176.19 149.688c0-12.51-10.246-22.688-22.84-22.688s-22.835 10.178-22.835 22.688s10.242 22.687 22.836 22.687s22.839-10.178 22.839-22.687m6.433 0c0 16.034-13.13 29.078-29.272 29.078c-16.139 0-29.27-13.044-29.27-29.078c0-16.035 13.131-29.078 29.27-29.078c16.141 0 29.272 13.043 29.272 29.078m27.008 43.827l-22.427-20.067a41.7 41.7 0 0 1-6.231 6.915l22.395 20.064c1.91 1.713 4.883 1.553 6.61-.345c1.718-1.898 1.564-4.848-.347-6.567m-56.28-8.998c19.335 0 35.065-15.625 35.065-34.83c0-19.207-15.73-34.829-35.065-34.829c-19.333 0-35.063 15.622-35.063 34.83c0 19.204 15.73 34.83 35.063 34.83m61.407 19.842a11.15 11.15 0 0 1-8.267 3.64a11.12 11.12 0 0 1-7.427-2.825l-23.286-20.86c-6.476 4.155-14.16 6.593-22.427 6.593c-22.881 0-41.496-18.492-41.496-41.22c0-22.73 18.615-41.22 41.496-41.22c22.884 0 41.499 18.49 41.499 41.22c0 6.521-1.573 12.67-4.3 18.156l23.388 20.926c4.542 4.08 4.909 11.069.82 15.59M68.097 94.056c0 1.662.103 3.317.3 4.918a3.194 3.194 0 0 1-2.635 3.537c-7.91 2.03-20.928 8.17-20.928 26.595c0 13.913 7.723 21.591 14.205 25.586c2.213 1.386 4.831 2.124 7.594 2.153l38.791.035l-.006 6.391l-38.82-.035c-3.986-.042-7.768-1.122-10.97-3.125c-6.423-3.96-17.228-13.264-17.228-31.005c0-21.386 14.72-29.292 23.36-32.085a46 46 0 0 1-.096-2.965c0-17.472 11.93-35.593 27.75-42.147c18.503-7.7 38.106-3.882 52.43 10.206c4.44 4.365 8.09 9.666 10.892 15.798c3.764-3.096 8.402-4.806 13.292-4.806c9.608 0 20.423 7.244 22.35 23.087c8.997 2.06 28.008 9.263 28.008 33.158c0 9.542-3.01 17.421-8.952 23.422l-4.587-4.483c4.716-4.76 7.106-11.132 7.106-18.939c0-20.9-17.615-26.1-25.194-27.362a3.2 3.2 0 0 1-2.117-1.345a3.17 3.17 0 0 1-.518-2.358c-1.051-12.973-8.81-18.789-16.096-18.789c-4.597 0-8.907 2.224-11.828 6.103a3.22 3.22 0 0 1-3.05 1.246a3.22 3.22 0 0 1-2.55-2.073c-2.635-7.25-6.43-13.348-11.282-18.115c-12.413-12.21-29.388-15.52-45.423-8.851c-13.347 5.528-23.798 21.447-23.798 36.248"/></svg></g></g></g></g><g class="architecture-groups"><rect id="my-svg-group-ext" x="-436.06920519372704" y="100.1341156939373" width="206" height="182" class="node-bkg"/><g><g dy="1em" alignment-baseline="middle" dominant-baseline="start" text-anchor="start" transform="translate(-432.06920519372704, 102.1341156939373)"><g><rect class="background" style="stroke: none"/><text y="-10.1" style=""><tspan class="text-outer-tspan row" x="0" y="-0.1em" dy="1.1em"><tspan font-style="normal" class="text-inner-tspan" font-weight="normal">External</tspan></tspan></text></g></g></g><rect id="my-svg-group-aws" x="-181.79063925222727" y="-231.13411569393725" width="666.3598444459543" height="596.2682313878745" class="node-bkg"/><g><g dy="1em" alignment-baseline="middle" dominant-baseline="start" text-anchor="start" transform="translate(-177.79063925222727, -229.13411569393725)"><g><rect class="background" style="stroke: none"/><text y="-10.1" style=""><tspan class="text-outer-tspan row" x="0" y="-0.1em" dy="1.1em"><tspan font-style="normal" class="text-inner-tspan" font-weight="normal">AWS</tspan><tspan font-style="normal" class="text-inner-tspan" font-weight="normal"> Cloud</tspan></tspan></text></g></g></g><rect id="my-svg-group-ec2" x="-140.29063925222727" y="58.634115693937304" width="264" height="265" class="node-bkg"/><g><g dy="1em" alignment-baseline="middle" dominant-baseline="start" text-anchor="start" transform="translate(-136.29063925222727, 60.634115693937304)"><g><rect class="background" style="stroke: none"/><text y="-10.1" style=""><tspan class="text-outer-tspan row" x="0" y="-0.1em" dy="1.1em"><tspan font-style="normal" class="text-inner-tspan" font-weight="normal">EC2</tspan><tspan font-style="normal" class="text-inner-tspan" font-weight="normal"> Instance</tspan></tspan></text></g></g></g><rect id="my-svg-group-dock" x="-98.79063925222727" y="100.1341156939373" width="181" height="182" class="node-bkg"/><g><g dy="1em" alignment-baseline="middle" dominant-baseline="start" text-anchor="start" transform="translate(-94.79063925222727, 102.1341156939373)"><g><rect class="background" style="stroke: none"/><text y="-10.1" style=""><tspan class="text-outer-tspan row" x="0" y="-0.1em" dy="1.1em"><tspan font-style="normal" class="text-inner-tspan" font-weight="normal">Docker</tspan></tspan></text></g></g></g><rect id="my-svg-group-data" x="265.06920519372704" y="-145.3906236792511" width="178" height="182" class="node-bkg"/><g><g dy="1em" alignment-baseline="middle" dominant-baseline="start" text-anchor="start" transform="translate(269.06920519372704, -143.3906236792511)"><g><rect class="background" style="stroke: none"/><text y="-10.1" style=""><tspan class="text-outer-tspan row" x="0" y="-0.1em" dy="1.1em"><tspan font-style="normal" class="text-inner-tspan" font-weight="normal">Data</tspan></tspan></text></g></g></g><rect id="my-svg-group-notify" x="190.01154704036816" y="100.1341156939373" width="165" height="182" class="node-bkg"/><g><g dy="1em" alignment-baseline="middle" dominant-baseline="start" text-anchor="start" transform="translate(194.01154704036816, 102.1341156939373)"><g><rect class="background" style="stroke: none"/><text y="-10.1" style=""><tspan class="text-outer-tspan row" x="0" y="-0.1em" dy="1.1em"><tspan font-style="normal" class="text-inner-tspan" font-weight="normal">Notification</tspan></tspan></text></g></g></g><rect id="my-svg-group-mon" x="-99.79063925222727" y="-189.63411569393725" width="183" height="182" class="node-bkg"/><g><g dy="1em" alignment-baseline="middle" dominant-baseline="start" text-anchor="start" transform="translate(-95.79063925222727, -187.63411569393725)"><g><rect class="background" style="stroke: none"/><text y="-10.1" style=""><tspan class="text-outer-tspan row" x="0" y="-0.1em" dy="1.1em"><tspan font-style="normal" class="text-inner-tspan" font-weight="normal">Monitoring</tspan></tspan></text></g></g></g></g></svg>