<svg id="my-svg" width="100%" xmlns="http://www.w3.org/2000/svg" xmlns:xlink="http://www.w3.org/1999/xlink" style="max-width: 1367.71px; background-color: white;" viewBox="-637.8565673828125 -249.45999145507812 1367.713134765625 629.9199829101562" role="graphics-document document" aria-roledescription="architecture"><style>#my-svg{font-family:"trebuchet ms",verdana,arial,sans-serif;font-size:16px;fill:#333;}@keyframes edge-animation-frame{from{stroke-dashoffset:0;}}@keyframes dash{to{stroke-dashoffset:0;}}#my-svg .edge-animation-slow{stroke-dasharray:9,5!important;stroke-dashoffset:900;animation:dash 50s linear infinite;stroke-linecap:round;}#my-svg .edge-animation-fast{stroke-dasharray:9,5!important;stroke-dashoffset:900;animation:dash 20s linear infinite;stroke-linecap:round;}#my-svg .error-icon{fill:#552222;}#my-svg .error-text{fill:#552222;stroke:#552222;}#my-svg .edge-thickness-normal{stroke-width:1px;}#my-svg .edge-thickness-thick{stroke-width:3.5px;}#my-svg .edge-pattern-solid{stroke-dasharray:0;}#my-svg .edge-thickness-invisible{stroke-width:0;fill:none;}#my-svg .edge-pattern-dashed{stroke-dasharray:3;}#my-svg .edge-pattern-dotted{stroke-dasharray:2;}#my-svg .marker{fill:#333333;stroke:#333333;}#my-svg .marker.cross{stroke:#333333;}#my-svg svg{font-family:"trebuchet ms",verdana,arial,sans-serif;font-size:16px;}#my-svg p{margin:0;}#my-svg .edge{stroke-width:3;stroke:#333333;fill:none;}#my-svg .arrow{fill:#333333;}#my-svg .node-bkg{fill:none;stroke:hsl(240, 60%, 86.2745098039%);stroke-width:2px;stroke-dasharray:8;}#my-svg .node-icon-text{display:flex;align-items:center;}#my-svg .node-icon-text&gt;div{color:#fff;margin:1px;height:fit-content;text-align:center;overflow:hidden;display:-webkit-box;-webkit-box-orient:vertical;}#my-svg .node .neo-node{stroke:#9370DB;}#my-svg [data-look="neo"].node rect,#my-svg [data-look="neo"].cluster rect,#my-svg [data-look="neo"].node polygon{stroke:#9370DB;filter:drop-shadow(1px 2px 2px rgba(185, 185, 185, 1));}#my-svg [data-look="neo"].node path{stroke:#9370DB;stroke-width:1px;}#my-svg [data-look="neo"].node .outer-path{filter:drop-shadow(1px 2px 2px rgba(185, 185, 185, 1));}#my-svg [data-look="neo"].node .neo-line path{stroke:#9370DB;filter:none;}#my-svg [data-look="neo"].node circle{stroke:#9370DB;filter:drop-shadow(1px 2px 2px rgba(185, 185, 185, 1));}#my-svg [data-look="neo"].node circle .state-start{fill:#000000;}#my-svg [data-look="neo"].icon-shape .icon{fill:#9370DB;filter:drop-shadow(1px 2px 2px rgba(185, 185, 185, 1));}#my-svg [data-look="neo"].icon-shape .icon-neo path{stroke:#9370DB;filter:drop-shadow(1px 2px 2px rgba(185, 185, 185, 1));}#my-svg :root{--mermaid-font-family:"trebuchet ms",verdana,arial,sans-serif;}</style><g/><g class="architecture-edges"><g><path d="M -472.85655980731826,157.95998866471956 L -335.96487183002614,157.95998866471956 L-199.07318385273402,157.95998866471956" class="edge" id="my-svg-L_app_api_0"/><polygon points="13.333333333333334,6.666666666666667 0,13.333333333333334 0,0" transform="translate(-210.40651718606736,151.2933219980529)" class="arrow"/></g><g><path d="M -119.07318385273402,157.95998866471956 L -58.672715285203935,157.95998866471956 L1.727753282326148,157.95998866471956" class="edge" id="my-svg-L_api_cache_0"/><polygon points="13.333333333333334,6.666666666666667 0,13.333333333333334 0,0" transform="translate(-9.605580051007186,151.2933219980529)" class="arrow"/></g><g><path d="M -159.07318385273402,117.95998866471955 L -159.07318385273402,56.99999999999996 L-159.07318385273402,-3.9599886647196314" class="edge" id="my-svg-L_api_vpn1_0"/><polygon points="6.666666666666667,0 13.333333333333334,13.333333333333334 0,13.333333333333334" transform="translate(-165.73985051940068,-5.959988664719631)" class="arrow"/></g><g><path d="M -119.07318385273402,-43.95998866471963 L 99.43650129264421,-43.95998866471963 L317.94618643802244,-43.95998866471963" class="edge" id="my-svg-L_vpn1_vpn2_0"/><polygon points="13.333333333333334,6.666666666666667 0,13.333333333333334 0,0" transform="translate(306.6128531046891,-50.626655331386296)" class="arrow"/></g><g><path d="M 397.94618643802244,-43.95998866471963 L 458.40137312267035,-43.95998866471963 L518.8565598073183,-43.95998866471963" class="edge" id="my-svg-L_vpn2_gpu_0"/><polygon points="13.333333333333334,6.666666666666667 0,13.333333333333334 0,0" transform="translate(507.52322647398495,-50.626655331386296)" class="arrow"/></g></g><g class="architecture-services"><g id="my-svg-service-app" class="architecture-service" transform="translate(-552.8565598073183,117.95998866471956)"><g dy="1em" alignment-baseline="middle" dominant-baseline="middle" text-anchor="middle" transform="translate(40, 80)"><g><rect class="background" style="stroke: none"/><text y="-10.1" style=""><tspan class="text-outer-tspan row" x="0" y="-0.1em" dy="1.1em"><tspan font-style="normal" class="text-inner-tspan" font-weight="normal">iOS</tspan><tspan font-style="normal" class="text-inner-tspan" font-weight="normal"> Watch</tspan></tspan></text></g></g><g><g><svg xmlns="http://www.w3.org/2000/svg" width="80" height="80" viewBox="0 0 256 315"><path d="M213.803 167.03c.442 47.58 41.74 63.413 42.197 63.615c-.35 1.116-6.599 22.563-21.757 44.716c-13.104 19.153-26.705 38.235-48.13 38.63c-21.05.388-27.82-12.483-51.888-12.483c-24.061 0-31.582 12.088-51.51 12.871c-20.68.783-36.428-20.71-49.64-39.793c-27-39.033-47.633-110.3-19.928-158.406c13.763-23.89 38.36-39.017 65.056-39.405c20.307-.387 39.475 13.662 51.889 13.662c12.406 0 35.699-16.895 60.186-14.414c10.25.427 39.026 4.14 57.503 31.186c-1.49.923-34.335 20.044-33.978 59.822M174.24 50.199c10.98-13.29 18.369-31.79 16.353-50.199c-15.826.636-34.962 10.546-46.314 23.828c-10.173 11.763-19.082 30.589-16.678 48.633c17.64 1.365 35.66-8.964 46.64-22.262"/></svg></g></g></g><g id="my-svg-service-api" class="architecture-service" transform="translate(-199.07318385273402,117.95998866471956)"><g dy="1em" alignment-baseline="middle" dominant-baseline="middle" text-anchor="middle" transform="translate(40, 80)"><g><rect class="background" style="stroke: none"/><text y="-10.1" style=""><tspan class="text-outer-tspan row" x="0" y="-0.1em" dy="1.1em"><tspan font-style="normal" class="text-inner-tspan" font-weight="normal">API</tspan><tspan font-style="normal" class="text-inner-tspan" font-weight="normal"> Server</tspan></tspan></text></g></g><g><g><svg xmlns="http://www.w3.org/2000/svg" width="80" height="80" viewBox="0 0 256 256"><path d="m254.251 124.862l-10.747-6.653a146 146 0 0 0-.306-3.13l9.236-8.615a3.69 3.69 0 0 0 1.105-3.427a3.69 3.69 0 0 0-2.33-2.744l-11.807-4.415a137 137 0 0 0-.925-3.048l7.365-10.229a3.698 3.698 0 0 0-2.407-5.814l-12.45-2.025c-.484-.944-.988-1.874-1.496-2.796l5.231-11.483a3.68 3.68 0 0 0-.288-3.59a3.68 3.68 0 0 0-3.204-1.642l-12.636.44a100 100 0 0 0-1.996-2.421l2.904-12.308a3.7 3.7 0 0 0-.986-3.466a3.7 3.7 0 0 0-3.464-.986l-12.305 2.901a106 106 0 0 0-2.426-1.996l.442-12.635a3.68 3.68 0 0 0-1.64-3.205a3.69 3.69 0 0 0-3.59-.29l-11.48 5.234a133 133 0 0 0-2.796-1.5l-2.03-12.452a3.7 3.7 0 0 0-5.812-2.407l-10.236 7.365q-1.51-.481-3.042-.922L155.72 4.794a3.69 3.69 0 0 0-2.745-2.336a3.71 3.71 0 0 0-3.424 1.106l-8.615 9.243a111 111 0 0 0-3.13-.306l-6.653-10.75a3.698 3.698 0 0 0-6.289 0l-6.653 10.75a110 110 0 0 0-3.133.306l-8.617-9.243a3.695 3.695 0 0 0-6.169 1.23l-4.414 11.809c-1.023.293-2.035.604-3.045.922L82.599 10.16a3.69 3.69 0 0 0-3.579-.415a3.7 3.7 0 0 0-2.235 2.822l-2.03 12.452c-.94.487-1.869.988-2.796 1.5l-11.481-5.235a3.69 3.69 0 0 0-3.588.291a3.68 3.68 0 0 0-1.642 3.205l.44 12.635a118 118 0 0 0-2.426 1.996l-12.305-2.9a3.71 3.71 0 0 0-3.466.985a3.7 3.7 0 0 0-.986 3.466l2.899 12.308q-1.01 1.196-1.991 2.421l-12.636-.44a3.72 3.72 0 0 0-3.204 1.641a3.7 3.7 0 0 0-.291 3.59l5.234 11.484c-.509.922-1.012 1.852-1.5 2.796l-12.449 2.025a3.7 3.7 0 0 0-2.407 5.814l7.365 10.23q-.482 1.514-.925 3.047l-11.808 4.415a3.702 3.702 0 0 0-1.225 6.171l9.237 8.614c-.115 1.04-.217 2.087-.305 3.131L1.75 124.862A3.7 3.7 0 0 0 0 128.007c0 1.284.663 2.473 1.751 3.143l10.748 6.653q.132 1.572.305 3.131l-9.238 8.617a3.697 3.697 0 0 0 1.226 6.169l11.808 4.415c.294 1.022.605 2.037.925 3.047l-7.365 10.231a3.696 3.696 0 0 0 2.41 5.812l12.447 2.025c.487.944.986 1.874 1.5 2.8l-5.235 11.48a3.69 3.69 0 0 0 .291 3.59a3.68 3.68 0 0 0 3.204 1.641l12.63-.442c.659.821 1.322 1.626 1.997 2.426l-2.899 12.31a3.68 3.68 0 0 0 .986 3.459a3.68 3.68 0 0 0 3.466.983l12.305-2.898c.8.68 1.61 1.34 2.427 1.99l-.44 12.639a3.694 3.694 0 0 0 5.229 3.492l11.481-5.231a106 106 0 0 0 2.796 1.499l2.03 12.445a3.69 3.69 0 0 0 2.235 2.825a3.7 3.7 0 0 0 3.579-.413l10.229-7.37c1.01.32 2.025.633 3.047.927l4.415 11.804a3.69 3.69 0 0 0 2.744 2.331a3.68 3.68 0 0 0 3.425-1.106l8.617-9.238c1.04.12 2.086.22 3.133.313l6.653 10.748a3.7 3.7 0 0 0 3.143 1.75a3.7 3.7 0 0 0 3.145-1.75l6.653-10.748c1.047-.093 2.092-.193 3.131-.313l8.615 9.238a3.68 3.68 0 0 0 3.424 1.106a3.69 3.69 0 0 0 2.744-2.331l4.415-11.804c1.022-.294 2.038-.607 3.048-.927l10.231 7.37a3.7 3.7 0 0 0 5.812-2.412l2.03-12.445c.939-.487 1.868-.993 2.795-1.5l11.481 5.232a3.692 3.692 0 0 0 5.23-3.492l-.44-12.638a99 99 0 0 0 2.423-1.991l12.306 2.898c1.25.294 2.56-.07 3.463-.983a3.68 3.68 0 0 0 .986-3.459l-2.898-12.31c.675-.8 1.34-1.605 1.99-2.426l12.636.442a3.68 3.68 0 0 0 3.204-1.64a3.69 3.69 0 0 0 .289-3.592l-5.232-11.478c.511-.927 1.013-1.857 1.497-2.8l12.45-2.026a3.68 3.68 0 0 0 2.822-2.236a3.7 3.7 0 0 0-.415-3.576l-7.365-10.23q.479-1.516.925-3.048l11.806-4.415a3.68 3.68 0 0 0 2.331-2.745a3.68 3.68 0 0 0-1.106-3.424l-9.235-8.617c.112-1.04.215-2.086.305-3.13l10.748-6.654a3.69 3.69 0 0 0 1.751-3.143c0-1.281-.66-2.472-1.749-3.145m-71.932 89.156c-4.104-.885-6.714-4.93-5.833-9.047c.878-4.112 4.92-6.729 9.023-5.844c4.104.879 6.718 4.931 5.838 9.04c-.88 4.11-4.926 6.73-9.028 5.851m-3.652-24.699a6.93 6.93 0 0 0-8.23 5.332l-3.816 17.807c-11.775 5.344-24.85 8.313-38.621 8.313c-14.086 0-27.446-3.116-39.43-8.688l-3.814-17.806c-.802-3.747-4.486-6.134-8.228-5.33l-15.72 3.376a93 93 0 0 1-8.128-9.58h76.49c.865 0 1.442-.157 1.442-.945v-27.057c0-.787-.577-.944-1.443-.944H106.8v-17.15h24.195c2.208 0 11.809.63 14.878 12.902c.962 3.774 3.072 16.05 4.516 19.98c1.438 4.408 7.293 13.213 13.533 13.213h38.115c.433 0 .895-.049 1.382-.137a94 94 0 0 1-8.669 10.17zm-105.79 24.327c-4.105.886-8.146-1.731-9.029-5.843c-.878-4.119 1.732-8.162 5.836-9.047a7.607 7.607 0 0 1 9.028 5.85c.878 4.11-1.734 8.16-5.836 9.04M43.86 95.986c1.703 3.842-.03 8.345-3.867 10.045c-3.837 1.705-8.328-.03-10.03-3.875a7.615 7.615 0 0 1 3.867-10.045a7.6 7.6 0 0 1 10.03 3.874m-8.918 21.14l16.376-7.277a6.94 6.94 0 0 0 3.524-9.158l-3.372-7.626h13.264v59.788H37.973a93.7 93.7 0 0 1-3.566-25.672c0-3.398.183-6.756.535-10.056m71.862-5.807V93.696h31.586c1.632 0 11.52 1.886 11.52 9.28c0 6.139-7.584 8.34-13.821 8.34zm114.792 15.862q0 3.506-.257 6.948h-9.603c-.961 0-1.348.632-1.348 1.573v4.41c0 10.38-5.853 12.638-10.982 13.213c-4.884.55-10.3-2.045-10.967-5.034c-2.882-16.206-7.683-19.667-15.265-25.648c9.41-5.975 19.2-14.79 19.2-26.59c0-12.74-8.734-20.765-14.688-24.7c-8.352-5.506-17.6-6.61-20.095-6.61H58.279c13.467-15.03 31.719-25.677 52.362-29.551l11.706 12.28a6.923 6.923 0 0 0 9.799.226l13.098-12.528c27.445 5.11 50.682 22.194 64.073 45.633l-8.967 20.253c-1.548 3.505.032 7.604 3.527 9.157l17.264 7.668c.298 3.065.455 6.161.455 9.3M122.352 24.745c3.033-2.905 7.844-2.79 10.748.247c2.898 3.046 2.788 7.862-.252 10.765c-3.033 2.906-7.844 2.793-10.748-.25a7.62 7.62 0 0 1 .252-10.762m88.983 71.61a7.594 7.594 0 0 1 10.028-3.872c3.838 1.702 5.57 6.203 3.867 10.045a7.595 7.595 0 0 1-10.03 3.875c-3.833-1.703-5.565-6.2-3.865-10.048"/></svg></g></g></g><g id="my-svg-service-cache" class="architecture-service" transform="translate(1.727753282326141,117.95998866471956)"><g dy="1em" alignment-baseline="middle" dominant-baseline="middle" text-anchor="middle" transform="translate(40, 80)"><g><rect class="background" style="stroke: none"/><text y="-10.1" style=""><tspan class="text-outer-tspan row" x="0" y="-0.1em" dy="1.1em"><tspan font-style="normal" class="text-inner-tspan" font-weight="normal">ElastiCache</tspan></tspan><tspan class="text-outer-tspan row" x="0" y="1em" dy="1.1em"><tspan font-style="normal" class="text-inner-tspan" font-weight="normal">Redis</tspan></tspan></text></g></g><g><g><svg xmlns="http://www.w3.org/2000/svg" width="80" height="80" viewBox="0 0 256 256"><defs><linearGradient id="IconifyId19eafe52f98c67ea00" x1="0%" x2="100%" y1="100%" y2="0%"><stop offset="0%" stop-color="#2e27ad"/><stop offset="100%" stop-color="#527fff"/></linearGradient></defs><path fill="url(#IconifyId19eafe52f98c67ea00)" d="M0 0h256v256H0z"/><path fill="#fff" d="M163.2 196.978v-18.729c-8.109 5.24-22.707 7.713-36.62 7.713c-15.169 0-26.993-2.647-33.78-7.185v18.2c0 5.419 12.634 11.022 33.78 11.022c21.58 0 36.62-5.808 36.62-11.021m-36.62-39.473c-15.169 0-26.993-2.643-33.78-7.181v18.273c.1 5.4 12.714 10.965 33.78 10.965c21.513 0 36.52-5.774 36.62-10.978v-18.792c-8.109 5.242-22.707 7.713-36.62 7.713m36.62-17.374v-21.638c-8.109 5.24-22.707 7.713-36.62 7.713c-15.169 0-26.993-2.643-33.78-7.181v21.118c.1 5.4 12.714 10.961 33.78 10.961c21.513 0 36.52-5.773 36.62-10.973m-70.41-31.354c0 .01.004.02.004.029h.006v.035c.1 5.4 12.714 10.964 33.78 10.964c23.494 0 36.52-6.47 36.62-10.973v-.026h.006c0-.01.004-.02.004-.029c0-4.506-13.044-11.028-36.63-11.028c-21.153 0-33.79 5.607-33.79 11.028m76.81.08v31.22h.01c0 .028-.01.05-.01.08v28.376h.01c0 .03-.01.051-.01.08v28.365c0 11.972-22.3 17.422-43.02 17.422c-24.407 0-40.18-6.839-40.18-17.422v-28.346c0-.035-.01-.064-.01-.099h.01v-28.358c0-.032-.01-.064-.01-.099h.01v-31.2c0-.035-.01-.064-.01-.099c0-10.586 15.776-17.429 40.19-17.429c20.722 0 43.03 5.454 43.03 17.43c0 .028-.01.05-.01.08m44.8-41.27a3.2 3.2 0 0 0 3.2-3.201V48c0-1.77-1.43-3.2-3.2-3.2H41.6c-1.77 0-3.2 1.43-3.2 3.2v16.386a3.2 3.2 0 0 0 3.2 3.2c3.907 0 7.085 3.159 7.085 7.04c0 3.883-3.178 7.041-7.085 7.041a3.2 3.2 0 0 0-3.2 3.2v65.543a3.2 3.2 0 0 0 3.2 3.2h32v-6.4h-16v-9.601h16v-6.4H54.4c-1.77 0-3.2 1.43-3.2 3.2v12.8h-6.4V87.685c5.898-1.437 10.285-6.746 10.285-13.057c0-6.314-4.387-11.624-10.285-13.06V51.2h166.4v10.365c-5.898 1.437-10.285 6.747-10.285 13.06c0 6.312 4.387 11.621 10.285 13.058v59.526h-6.4v-12.802c0-1.77-1.43-3.2-3.2-3.2h-19.2v6.4h16v9.602h-16v6.4h32a3.2 3.2 0 0 0 3.2-3.2V84.868a3.2 3.2 0 0 0-3.2-3.2c-3.907 0-7.085-3.16-7.085-7.041s3.178-7.04 7.085-7.04M89.6 89.603V64.002c0-1.77-1.43-3.2-3.2-3.2H67.2c-1.77 0-3.2 1.43-3.2 3.2v54.405a3.2 3.2 0 0 0 3.2 3.2h9.6v-6.4h-6.4V67.202h12.8v22.402zm96 25.603h-3.2v6.4h6.4a3.2 3.2 0 0 0 3.2-3.2V64.002c0-1.77-1.43-3.2-3.2-3.2h-19.2c-1.77 0-3.2 1.43-3.2 3.2v25.602h6.4V67.202h12.8zM160 86.404V64.002c0-1.77-1.43-3.2-3.2-3.2h-22.4c-1.77 0-3.2 1.43-3.2 3.2v19.202h6.4V67.202h16v19.202zm-41.6-3.2V67.202h-16v19.202H96V64.002c0-1.77 1.43-3.2 3.2-3.2h22.4c1.77 0 3.2 1.43 3.2 3.2v19.202z"/></svg></g></g></g><g id="my-svg-service-vpn1" class="architecture-service" transform="translate(-199.07318385273402,-83.95998866471963)"><g dy="1em" alignment-baseline="middle" dominant-baseline="middle" text-anchor="middle" transform="translate(40, 80)"><g><rect class="background" style="stroke: none"/><text y="-10.1" style=""><tspan class="text-outer-tspan row" x="0" y="-0.1em" dy="1.1em"><tspan font-style="normal" class="text-inner-tspan" font-weight="normal">Tailscale</tspan><tspan font-style="normal" class="text-inner-tspan" font-weight="normal"> AWS</tspan></tspan></text></g></g><g><g><svg xmlns="http://www.w3.org/2000/svg" width="80" height="80" viewBox="0 0 256 256"><defs><linearGradient id="IconifyId19eafe52f98c67ea01" x1="0%" x2="100%" y1="100%" y2="0%"><stop offset="0%" stop-color="#4d27a8"/><stop offset="100%" stop-color="#a166ff"/></linearGradient></defs><path fill="url(#IconifyId19eafe52f98c67ea01)" d="M0 0h256v256H0z"/><path fill="#fff" d="m195.2 132.39l-17.6-7.04v63.843c5.14-.512 9.283-2.202 12.227-5.19c5.44-5.53 5.376-13.636 5.373-13.716zm-24 56.844V125.35l-17.6 7.04v37.834c.022.662.749 17.142 17.6 19.011m30.4-19.011c.01.362.17 10.71-7.152 18.208c-4.787 4.906-11.536 7.392-20.048 7.392c-21.034 0-26.992-16.698-27.2-25.523v-40.077c0-1.309.797-2.486 2.013-2.973l24-9.6a3.2 3.2 0 0 1 2.374 0l24 9.6a3.2 3.2 0 0 1 2.013 2.973zm9.603-6.291l-.003-42.743l-36.8-14.72l-36.8 14.72v42.634c-.006.291-.432 19.93 11.309 32.013c6.182 6.361 14.758 9.587 25.491 9.587c10.806 0 19.424-3.248 25.613-9.651c11.725-12.135 11.197-31.645 11.19-31.84m-6.589 36.285c-7.44 7.702-17.606 11.606-30.214 11.606c-12.547 0-22.678-3.891-30.112-11.565c-13.629-14.057-13.117-35.625-13.088-36.534v-44.701c0-1.309.797-2.486 2.013-2.973l40-16a3.2 3.2 0 0 1 2.374 0l40 16a3.2 3.2 0 0 1 2.013 2.973v44.8c.029.8.605 22.33-12.986 36.394M73.776 151.023H121.6v6.4H73.776c-19.45 0-34.298-12.966-35.3-30.832c-.07-.73-.076-1.58-.076-2.432c0-21.98 15.37-30.074 24.333-32.922a50 50 0 0 1-.096-3.113c0-17.45 12.448-35.706 28.95-42.464c19.38-7.936 39.811-4.093 54.637 10.262c4.995 4.867 8.803 10.064 11.558 15.789c3.86-3.312 8.519-5.091 13.51-5.091c10.577 0 21.764 8.3 23.687 24.201c6.986 1.76 15.754 5.498 21.943 13.434l-5.044 3.936c-5.702-7.315-14.307-10.362-20.518-11.635a3.19 3.19 0 0 1-2.554-2.944c-.835-14.147-9.664-20.592-17.513-20.592c-4.679 0-8.826 2.208-11.997 6.384a3.16 3.16 0 0 1-3.024 1.232a3.2 3.2 0 0 1-2.528-2.064c-2.454-6.688-6.371-12.595-11.978-18.058c-12.94-12.525-30.803-15.869-47.753-8.931c-14.237 5.83-24.976 21.54-24.976 36.54c0 1.732.099 3.444.3 5.086a3.204 3.204 0 0 1-2.409 3.49c-8.262 2.046-22.128 8.337-22.128 27.46c0 .646-.006 1.296.058 1.946c.812 14.49 12.972 24.918 28.918 24.918"/></svg></g></g></g><g id="my-svg-service-vpn2" class="architecture-service" transform="translate(317.94618643802244,-83.95998866471963)"><g dy="1em" alignment-baseline="middle" dominant-baseline="middle" text-anchor="middle" transform="translate(40, 80)"><g><rect class="background" style="stroke: none"/><text y="-10.1" style=""><tspan class="text-outer-tspan row" x="0" y="-0.1em" dy="1.1em"><tspan font-style="normal" class="text-inner-tspan" font-weight="normal">Tailscale</tspan></tspan><tspan class="text-outer-tspan row" x="0" y="1em" dy="1.1em"><tspan font-style="normal" class="text-inner-tspan" font-weight="normal">OnPrem</tspan></tspan></text></g></g><g><g><svg xmlns="http://www.w3.org/2000/svg" width="80" height="80" viewBox="0 0 256 256"><defs><linearGradient id="IconifyId19eafe52f98c67ea02" x1="0%" x2="100%" y1="100%" y2="0%"><stop offset="0%" stop-color="#4d27a8"/><stop offset="100%" stop-color="#a166ff"/></linearGradient></defs><path fill="url(#IconifyId19eafe52f98c67ea02)" d="M0 0h256v256H0z"/><path fill="#fff" d="m195.2 132.39l-17.6-7.04v63.843c5.14-.512 9.283-2.202 12.227-5.19c5.44-5.53 5.376-13.636 5.373-13.716zm-24 56.844V125.35l-17.6 7.04v37.834c.022.662.749 17.142 17.6 19.011m30.4-19.011c.01.362.17 10.71-7.152 18.208c-4.787 4.906-11.536 7.392-20.048 7.392c-21.034 0-26.992-16.698-27.2-25.523v-40.077c0-1.309.797-2.486 2.013-2.973l24-9.6a3.2 3.2 0 0 1 2.374 0l24 9.6a3.2 3.2 0 0 1 2.013 2.973zm9.603-6.291l-.003-42.743l-36.8-14.72l-36.8 14.72v42.634c-.006.291-.432 19.93 11.309 32.013c6.182 6.361 14.758 9.587 25.491 9.587c10.806 0 19.424-3.248 25.613-9.651c11.725-12.135 11.197-31.645 11.19-31.84m-6.589 36.285c-7.44 7.702-17.606 11.606-30.214 11.606c-12.547 0-22.678-3.891-30.112-11.565c-13.629-14.057-13.117-35.625-13.088-36.534v-44.701c0-1.309.797-2.486 2.013-2.973l40-16a3.2 3.2 0 0 1 2.374 0l40 16a3.2 3.2 0 0 1 2.013 2.973v44.8c.029.8.605 22.33-12.986 36.394M73.776 151.023H121.6v6.4H73.776c-19.45 0-34.298-12.966-35.3-30.832c-.07-.73-.076-1.58-.076-2.432c0-21.98 15.37-30.074 24.333-32.922a50 50 0 0 1-.096-3.113c0-17.45 12.448-35.706 28.95-42.464c19.38-7.936 39.811-4.093 54.637 10.262c4.995 4.867 8.803 10.064 11.558 15.789c3.86-3.312 8.519-5.091 13.51-5.091c10.577 0 21.764 8.3 23.687 24.201c6.986 1.76 15.754 5.498 21.943 13.434l-5.044 3.936c-5.702-7.315-14.307-10.362-20.518-11.635a3.19 3.19 0 0 1-2.554-2.944c-.835-14.147-9.664-20.592-17.513-20.592c-4.679 0-8.826 2.208-11.997 6.384a3.16 3.16 0 0 1-3.024 1.232a3.2 3.2 0 0 1-2.528-2.064c-2.454-6.688-6.371-12.595-11.978-18.058c-12.94-12.525-30.803-15.869-47.753-8.931c-14.237 5.83-24.976 21.54-24.976 36.54c0 1.732.099 3.444.3 5.086a3.204 3.204 0 0 1-2.409 3.49c-8.262 2.046-22.128 8.337-22.128 27.46c0 .646-.006 1.296.058 1.946c.812 14.49 12.972 24.918 28.918 24.918"/></svg></g></g></g><g id="my-svg-service-gpu" class="architecture-service" transform="translate(518.8565598073183,-83.95998866471963)"><g dy="1em" alignment-baseline="middle" dominant-baseline="middle" text-anchor="middle" transform="translate(40, 80)"><g><rect class="background" style="stroke: none"/><text y="-10.1" style=""><tspan class="text-outer-tspan row" x="0" y="-0.1em" dy="1.1em"><tspan font-style="normal" class="text-inner-tspan" font-weight="normal">GPU</tspan><tspan font-style="normal" class="text-inner-tspan" font-weight="normal"> Server</tspan></tspan></text></g></g><g><g><svg xmlns="http://www.w3.org/2000/svg" width="80" height="80" viewBox="0 0 512 98"><path d="M312.805 18.394v63.838h18.015V18.394zm-141.742-.108v63.892h18.178v-49.61l14.174.054c4.653 0 7.899 1.136 10.117 3.517c2.867 3.03 4.003 7.952 4.003 16.879v29.16h17.637V46.904c0-25.21-16.068-28.618-31.757-28.618zm170.793.108v63.838h29.214c15.58 0 20.666-2.597 26.13-8.386c3.896-4.057 6.384-13.038 6.384-22.83c0-8.98-2.11-16.987-5.843-21.964c-6.6-8.927-16.23-10.658-30.62-10.658zm17.853 13.85h7.736c11.253 0 18.503 5.03 18.503 18.123s-7.25 18.177-18.503 18.177h-7.736zm-72.872-13.85l-15.04 50.583l-14.39-50.583H237.93l20.558 63.838h25.967l20.775-63.838zm125.187 63.838h18.015V18.394h-18.015zm50.529-63.838l-25.157 63.784h17.745l4.004-11.307h29.754l3.787 11.252H512l-25.373-63.73zm11.685 11.631l10.929 29.863h-22.181z"/><path fill="#76b900" d="M54.803 28.997v-8.764c.866-.054 1.731-.108 2.597-.108c24.02-.757 39.763 20.666 39.763 20.666S80.176 64.38 61.944 64.38c-2.434 0-4.815-.379-7.087-1.136V36.626c9.36 1.136 11.253 5.247 16.825 14.606L84.18 40.737s-9.143-11.956-24.507-11.956c-1.623-.054-3.246.054-4.869.216m0-28.997v13.092l2.597-.162c33.38-1.136 55.182 27.374 55.182 27.374S87.587 70.708 61.566 70.708c-2.273 0-4.49-.216-6.709-.595v8.115c1.84.217 3.733.379 5.572.379c24.237 0 41.765-12.389 58.753-26.996c2.813 2.272 14.336 7.736 16.717 10.117c-16.122 13.525-53.721 24.399-75.037 24.399a53 53 0 0 1-5.95-.325v11.415h92.077V0zm0 63.243v6.924c-22.397-4.003-28.619-27.32-28.619-27.32s10.766-11.902 28.619-13.85v7.574h-.054c-9.36-1.136-16.717 7.628-16.717 7.628s4.166 14.77 16.771 19.044M15.04 41.873s13.254-19.584 39.817-21.64v-7.14C25.427 15.472 0 40.357 0 40.357s14.39 41.657 54.803 45.444v-7.574C25.156 74.55 15.04 41.873 15.04 41.873"/></svg></g></g></g></g><g class="architecture-groups"><rect id="my-svg-group-ext" x="-597.8565598073183" y="75.45998866471956" width="170" height="182" class="node-bkg"/><g><g dy="1em" alignment-baseline="middle" dominant-baseline="start" text-anchor="start" transform="translate(-593.8565598073183, 77.45998866471956)"><g><rect class="background" style="stroke: none"/><text y="-10.1" style=""><tspan class="text-outer-tspan row" x="0" y="-0.1em" dy="1.1em"><tspan font-style="normal" class="text-inner-tspan" font-weight="normal">External</tspan></tspan></text></g></g></g><rect id="my-svg-group-aws" x="-340.073183852734" y="-209.45998866471965" width="1029.9297436600523" height="549.9199773294392" class="node-bkg"/><g><g dy="1em" alignment-baseline="middle" dominant-baseline="start" text-anchor="start" transform="translate(-336.073183852734, -207.45998866471965)"><g><rect class="background" style="stroke: none"/><text y="-10.1" style=""><tspan class="text-outer-tspan row" x="0" y="-0.1em" dy="1.1em"><tspan font-style="normal" class="text-inner-tspan" font-weight="normal">AWS</tspan><tspan font-style="normal" class="text-inner-tspan" font-weight="normal"> VPC</tspan></tspan></text></g></g></g><rect id="my-svg-group-ec2" x="-298.573183852734" y="-167.95998866471962" width="496.30093713506017" height="466.9199773294392" class="node-bkg"/><g><g dy="1em" alignment-baseline="middle" dominant-baseline="start" text-anchor="start" transform="translate(-294.573183852734, -165.95998866471962)"><g><rect class="background" style="stroke: none"/><text y="-10.1" style=""><tspan class="text-outer-tspan row" x="0" y="-0.1em" dy="1.1em"><tspan font-style="normal" class="text-inner-tspan" font-weight="normal">EC2</tspan><tspan font-style="normal" class="text-inner-tspan" font-weight="normal"> Instance</tspan></tspan></text></g></g></g><rect id="my-svg-group-docker" x="-257.073183852734" y="-126.45998866471962" width="413.30093713506017" height="383.9199773294392" class="node-bkg"/><g><g dy="1em" alignment-baseline="middle" dominant-baseline="start" text-anchor="start" transform="translate(-253.07318385273402, -124.45998866471962)"><g><rect class="background" style="stroke: none"/><text y="-10.1" style=""><tspan class="text-outer-tspan row" x="0" y="-0.1em" dy="1.1em"><tspan font-style="normal" class="text-inner-tspan" font-weight="normal">Docker</tspan></tspan></text></g></g></g><rect id="my-svg-group-prem" x="246.44618643802244" y="-126.45998866471962" width="401.9103733692958" height="182" class="node-bkg"/><g><g dy="1em" alignment-baseline="middle" dominant-baseline="start" text-anchor="start" transform="translate(250.44618643802244, -124.45998866471962)"><g><rect class="background" style="stroke: none"/><text y="-10.1" style=""><tspan class="text-outer-tspan row" x="0" y="-0.1em" dy="1.1em"><tspan font-style="normal" class="text-inner-tspan" font-weight="normal">On</tspan><tspan font-style="normal" class="text-inner-tspan" font-weight="normal"> Premises</tspan></tspan></text></g></g></g></g></svg>