<svg id="my-svg" width="750" height="506" xmlns="http://www.w3.org/2000/svg" xmlns:xlink="http://www.w3.org/1999/xlink" style="background-color: white;" viewBox="-549.9056091308594 -324.9135437011719 1162.811279296875 782.3270874023438" role="graphics-document document" aria-roledescription="architecture"><style>#my-svg{font-family:"trebuchet ms",verdana,arial,sans-serif;font-size:16px;fill:#333;}@keyframes edge-animation-frame{from{stroke-dashoffset:0;}}@keyframes dash{to{stroke-dashoffset:0;}}#my-svg .edge-animation-slow{stroke-dasharray:9,5!important;stroke-dashoffset:900;animation:dash 50s linear infinite;stroke-linecap:round;}#my-svg .edge-animation-fast{stroke-dasharray:9,5!important;stroke-dashoffset:900;animation:dash 20s linear infinite;stroke-linecap:round;}#my-svg .error-icon{fill:#552222;}#my-svg .error-text{fill:#552222;stroke:#552222;}#my-svg .edge-thickness-normal{stroke-width:1px;}#my-svg .edge-thickness-thick{stroke-width:3.5px;}#my-svg .edge-pattern-solid{stroke-dasharray:0;}#my-svg .edge-thickness-invisible{stroke-width:0;fill:none;}#my-svg .edge-pattern-dashed{stroke-dasharray:3;}#my-svg .edge-pattern-dotted{stroke-dasharray:2;}#my-svg .marker{fill:#333333;stroke:#333333;}#my-svg .marker.cross{stroke:#333333;}#my-svg svg{font-family:"trebuchet ms",verdana,arial,sans-serif;font-size:16px;}#my-svg p{margin:0;}#my-svg .edge{stroke-width:3;stroke:#333333;fill:none;}#my-svg .arrow{fill:#333333;}#my-svg .node-bkg{fill:none;stroke:hsl(240, 60%, 86.2745098039%);stroke-width:2px;stroke-dasharray:8;}#my-svg .node-icon-text{display:flex;align-items:center;}#my-svg .node-icon-text&gt;div{color:#fff;margin:1px;height:fit-content;text-align:center;overflow:hidden;display:-webkit-box;-webkit-box-orient:vertical;}#my-svg .node .neo-node{stroke:#9370DB;}#my-svg [data-look="neo"].node rect,#my-svg [data-look="neo"].cluster rect,#my-svg [data-look="neo"].node polygon{stroke:#9370DB;filter:drop-shadow(1px 2px 2px rgba(185, 185, 185, 1));}#my-svg [data-look="neo"].node path{stroke:#9370DB;stroke-width:1px;}#my-svg [data-look="neo"].node .outer-path{filter:drop-shadow(1px 2px 2px rgba(185, 185, 185, 1));}#my-svg [data-look="neo"].node .neo-line path{stroke:#9370DB;filter:none;}#my-svg [data-look="neo"].node circle{stroke:#9370DB;filter:drop-shadow(1px 2px 2px rgba(185, 185, 185, 1));}#my-svg [data-look="neo"].node circle .state-start{fill:#000000;}#my-svg [data-look="neo"].icon-shape .icon{fill:#9370DB;filter:drop-shadow(1px 2px 2px rgba(185, 185, 185, 1));}#my-svg [data-look="neo"].icon-shape .icon-neo path{stroke:#9370DB;filter:drop-shadow(1px 2px 2px rgba(185, 185, 185, 1));}#my-svg :root{--mermaid-font-family:"trebuchet ms",verdana,arial,sans-serif;}</style><g/><g class="architecture-edges"><g><path d="M -366.90561907227936,185.903238803867 L -233.00711953366232,185.903238803867 L-99.10861999504522,185.903238803867" class="edge" id="my-svg-L_gha_sb_0"/><polygon points="13.333333333333334,6.666666666666667 0,13.333333333333334 0,0" transform="translate(-110.44195332837855,179.23657213720034)" class="arrow"/></g><g><path d="M -19.108619995045217,185.903238803867 L 191.3984995386171,231.15839109965543 L401.9056190722794,276.41354339544387" class="edge" id="my-svg-L_sb_pg_0"/><polygon points="13.333333333333334,6.666666666666667 0,13.333333333333334 0,0" transform="translate(390.5722857389461,269.7468767287772)" class="arrow"/></g><g><path d="M -19.108619995045217,185.903238803867 L 173.40707973023035,134.7004741268221 L365.9227794555059,83.49770944977716" class="edge" id="my-svg-L_sb_rdb_0"/><polygon points="13.333333333333334,6.666666666666667 0,13.333333333333334 0,0" transform="translate(354.5894461221726,76.83104278311049)" class="arrow"/></g><g><path d="M -19.108619995045217,185.903238803867 L 95.13720697054089,185.903238803867 L209.383033936127,185.903238803867" class="edge" id="my-svg-L_sb_els_0"/><polygon points="13.333333333333334,6.666666666666667 0,13.333333333333334 0,0" transform="translate(198.04970060279365,179.23657213720034)" class="arrow"/></g><g><path d="M -59.10861999504522,145.903238803867 L -59.10861999504522,12.494847704211594 L-59.10861999504522,-120.91354339544381" class="edge" id="my-svg-L_sb_prom_0"/><polygon points="6.666666666666667,0 13.333333333333334,13.333333333333334 0,13.333333333333334" transform="translate(-65.77528666171189,-122.91354339544381)" class="arrow"/></g><g><path d="M -19.108619995045217,-160.9135433954438 L 40.52300446559485,-160.9135433954438 L100.15462892623492,-160.9135433954438" class="edge" id="my-svg-L_prom_graf_0"/><polygon points="13.333333333333334,6.666666666666667 0,13.333333333333334 0,0" transform="translate(88.82129559290159,-167.58021006211047)" class="arrow"/></g></g><g class="architecture-services"><g id="my-svg-service-gha" class="architecture-service" transform="translate(-446.90561907227936,145.903238803867)"><g dy="1em" alignment-baseline="middle" dominant-baseline="middle" text-anchor="middle" transform="translate(40, 80)"><g><rect class="background" style="stroke: none"/><text y="-10.1" style=""><tspan class="text-outer-tspan row" x="0" y="-0.1em" dy="1.1em"><tspan font-style="normal" class="text-inner-tspan" font-weight="normal">GitHub</tspan><tspan font-style="normal" class="text-inner-tspan" font-weight="normal"> Actions</tspan></tspan></text></g></g><g><g><svg xmlns="http://www.w3.org/2000/svg" width="80" height="80" viewBox="0 0 256 256"><path fill="#4a7ebf" d="M53.604 0c29.604 0 53.604 23.992 53.604 53.59c0 29.09-23.189 52.75-52.093 53.553c0 2.461.109 7.111 1.501 9.92c1.933 3.893 13.525 11.144 24.892 11.144h4.084c2.567-18.271 18.257-32.332 37.24-32.332c18.906 0 34.55 13.946 37.211 32.11h21.13c2.661-18.164 18.304-32.11 37.21-32.11c20.775 0 37.617 16.837 37.617 37.607s-16.842 37.606-37.617 37.606c-18.906 0-34.55-13.948-37.21-32.11h-21.129c-2.66 18.162-18.305 32.11-37.212 32.11c-18.87 0-34.494-13.893-37.199-32.007l-4.515.135c-7.435-.056-15.29-2.042-21.598-6.328c-1.72-1.169-3.415-2.397-5.182-3.56v2.441c-.01.79-.153 12.657-.164 25.833v2.79c.005 8.641.073 17.545.277 24.04c.446 14.246 12.034 25.745 24.822 28.436c1.663.35 4.52.394 6.321.238c2.571-18.264 18.26-32.32 37.238-32.32c20.774 0 37.616 16.838 37.616 37.607c0 20.77-16.842 37.607-37.616 37.607c-18.769 0-34.323-13.744-37.153-31.714h-3.254c-24.436-1.334-39.628-23.746-39.363-41.923c.334-22.877.082-45.764.079-68.646v-7.565C18.546 101.286 0 79.606 0 53.591C0 23.992 23.999 0 53.604 0m69.228 191.78c-14.701 0-26.62 11.915-26.62 26.613s11.919 26.614 26.62 26.614s26.62-11.915 26.62-26.614c0-14.698-11.918-26.614-26.62-26.614m0-84.912c-14.701 0-26.62 11.915-26.62 26.614c0 14.697 11.919 26.613 26.62 26.613s26.62-11.916 26.62-26.613c0-14.699-11.918-26.614-26.62-26.614m95.551 0c-14.702 0-26.62 11.915-26.62 26.614c0 14.697 11.918 26.613 26.62 26.613s26.621-11.916 26.621-26.613c0-14.699-11.918-26.614-26.62-26.614m15.161 15.408a5.496 5.496 0 0 1 .17 7.606l-.16.168l-16.31 16.345a5.5 5.5 0 0 1-7.576.198l-.172-.163l-7.985-7.86a5.496 5.496 0 0 1-.06-7.773a5.5 5.5 0 0 1 7.606-.22l.168.16l4.092 4.027l12.452-12.477a5.5 5.5 0 0 1 7.775-.01m-95.99-.08a5.497 5.497 0 0 1 .17 7.606l-.16.168l-16.31 16.344a5.5 5.5 0 0 1-7.576.198l-.172-.163l-7.985-7.86a5.498 5.498 0 0 1 7.546-7.992l.168.16l4.093 4.027l12.451-12.478a5.5 5.5 0 0 1 7.775-.01M53.604 10.993c-23.532 0-42.608 19.07-42.608 42.598c0 23.525 19.076 42.597 42.608 42.597s42.608-19.072 42.608-42.597c0-23.527-19.076-42.598-42.608-42.598M49.171 28.13A744 744 0 0 1 75.7 44.841c7.308 4.82 7.29 13.563-.1 18.394a609 609 0 0 1-27.058 16.712c-7.455 4.34-15.8-.65-16.002-9.344c-.13-5.602-.024-11.21-.032-16.817c-.006-5.454-.113-10.911.019-16.363c.222-9.248 8.736-14.066 16.643-9.293m-5.91 8.872v3.868l-.001 5.674l-.001 3.71v5.482c0 4.23.002 8.394.01 12.557c.003 1.96 1.023 1.88 2.343 1.063q11.408-7.071 22.827-14.127c1.258-.776 1.294-1.587.06-2.365c-8.154-5.139-16.318-10.26-25.238-15.862"/><path fill="#85b3df" d="M133.227 223.88a5.497 5.497 0 1 0 .001-10.996a5.497 5.497 0 0 0 0 10.995m-21.049.001a5.497 5.497 0 1 0 0-10.996a5.497 5.497 0 0 0 0 10.995m106.205 21.128c-14.702 0-26.62-11.915-26.62-26.614c0-14.698 11.918-26.614 26.62-26.614c14.701 0 26.62 11.916 26.62 26.614s-11.919 26.614-26.62 26.614m0-64.22c-18.906 0-34.55 13.947-37.211 32.11h-6.153c-2.685 0-4.864 2.461-4.864 5.496s2.179 5.497 4.864 5.497h6.153c2.66 18.163 18.305 32.11 37.21 32.11C239.159 256 256 239.162 256 218.393c0-20.77-16.842-37.607-37.616-37.607"/></svg></g></g></g><g id="my-svg-service-sb" class="architecture-service" transform="translate(-99.10861999504522,145.903238803867)"><g dy="1em" alignment-baseline="middle" dominant-baseline="middle" text-anchor="middle" transform="translate(40, 80)"><g><rect class="background" style="stroke: none"/><text y="-10.1" style=""><tspan class="text-outer-tspan row" x="0" y="-0.1em" dy="1.1em"><tspan font-style="normal" class="text-inner-tspan" font-weight="normal">Spring</tspan><tspan font-style="normal" class="text-inner-tspan" font-weight="normal"> Boot</tspan></tspan></text></g></g><g><g><svg xmlns="http://www.w3.org/2000/svg" width="80" height="80" viewBox="0 0 256 256"><path fill="#6db33f" d="M38.944 35.879c50.58-48.999 131.454-47.682 180.453 3.161c5.532-7.376 10.274-15.542 13.699-23.972c16.07 48.999 25.817 90.095 22.128 121.97c-1.844 26.87-12.381 52.687-29.768 73.235c-45.31 53.741-125.922 60.59-179.663 15.28l-1.028-.915l-.055-.036q-.252-.176-.498-.367q-.735-.573-1.336-1.24l-.144-.164l-1.68-1.493c-1.64-1.405-3.279-2.81-4.733-4.4l-.536-.606c-49-50.58-47.419-131.454 3.16-180.453M57.91 207.376c-4.742-3.688-11.591-3.162-15.28 1.58c-3.242 4.17-3.226 9.969.049 13.815l.052.06l2.033 1.807l.2.136c4.604 3.028 10.8 2.402 14.333-1.878l.194-.241c3.688-4.742 2.898-11.591-1.58-15.28M231.78 28.239c-13.173 27.661-45.84 48.736-74.027 55.322c-26.607 6.322-49.79 1.054-74.289 10.537c-55.848 21.339-54.794 87.724-24.236 102.74l1.844 1.054s22.074-4.389 43.902-10.185l1.87-.5c8.718-2.35 17.295-4.91 24.302-7.492c36.354-13.435 76.397-46.628 89.568-85.09c-6.849 40.042-41.359 78.767-75.87 96.418c-18.44 9.483-32.665 11.59-62.96 22.128c-3.688 1.317-6.586 2.635-6.586 2.635l1.108-.15l.736-.095l.733-.092c6.69-.83 12.702-1.244 12.702-1.244c42.94-2.108 110.38 12.118 141.729-29.768c32.139-42.677 14.225-111.697-.527-156.218"/><path fill="#fff" d="M57.911 207.376c4.479 3.688 5.269 10.537 1.58 15.279c-3.687 4.742-10.537 5.269-15.279 1.58s-5.268-10.537-1.58-15.279s10.537-5.268 15.28-1.58M231.78 28.239c14.752 44.521 32.666 113.541.527 156.218c-31.35 41.886-98.789 27.66-141.729 29.768c0 0-6.012.415-12.702 1.244l-.733.092q-.919.117-1.844.245s2.898-1.318 6.586-2.635c30.295-10.537 44.52-12.645 62.96-22.128c34.511-17.65 69.021-56.376 75.87-96.418c-13.171 38.462-53.214 71.655-89.568 85.09c-25.026 9.22-70.074 18.177-70.074 18.177l-1.844-1.054c-30.558-15.016-31.612-81.401 24.236-102.74c24.5-9.483 47.682-4.215 74.29-10.537c28.187-6.586 60.853-27.66 74.025-55.322"/></svg></g></g></g><g id="my-svg-service-pg" class="architecture-service" transform="translate(401.9056190722794,236.41354339544384)"><g dy="1em" alignment-baseline="middle" dominant-baseline="middle" text-anchor="middle" transform="translate(40, 80)"><g><rect class="background" style="stroke: none"/><text y="-10.1" style=""><tspan class="text-outer-tspan row" x="0" y="-0.1em" dy="1.1em"><tspan font-style="normal" class="text-inner-tspan" font-weight="normal">PostgreSQL</tspan></tspan></text></g></g><g><g><svg xmlns="http://www.w3.org/2000/svg" width="80" height="80" viewBox="0 0 256 264"><path d="M255.008 158.086c-1.535-4.649-5.556-7.887-10.756-8.664c-2.452-.366-5.26-.21-8.583.475c-5.792 1.195-10.089 1.65-13.225 1.738c11.837-19.985 21.462-42.775 27.003-64.228c8.96-34.689 4.172-50.492-1.423-57.64C233.217 10.847 211.614.683 185.552.372c-13.903-.17-26.108 2.575-32.475 4.549c-5.928-1.046-12.302-1.63-18.99-1.738c-12.537-.2-23.614 2.533-33.079 8.15c-5.24-1.772-13.65-4.27-23.362-5.864c-22.842-3.75-41.252-.828-54.718 8.685C6.622 25.672-.937 45.684.461 73.634c.444 8.874 5.408 35.874 13.224 61.48c4.492 14.718 9.282 26.94 14.237 36.33c7.027 13.315 14.546 21.156 22.987 23.972c4.731 1.576 13.327 2.68 22.368-4.85c1.146 1.388 2.675 2.767 4.704 4.048c2.577 1.625 5.728 2.953 8.875 3.74c11.341 2.835 21.964 2.126 31.027-1.848c.056 1.612.099 3.152.135 4.482c.06 2.157.12 4.272.199 6.25c.537 13.374 1.447 23.773 4.143 31.049c.148.4.347 1.01.557 1.657c1.345 4.118 3.594 11.012 9.316 16.411c5.925 5.593 13.092 7.308 19.656 7.308c3.292 0 6.433-.432 9.188-1.022c9.82-2.105 20.973-5.311 29.041-16.799c7.628-10.86 11.336-27.217 12.007-52.99q.13-1.094.244-2.088l.16-1.362l1.797.158l.463.031c10.002.456 22.232-1.665 29.743-5.154c5.935-2.754 24.954-12.795 20.476-26.351"/><path fill="#336791" d="M237.906 160.722c-29.74 6.135-31.785-3.934-31.785-3.934c31.4-46.593 44.527-105.736 33.2-120.211c-30.904-39.485-84.399-20.811-85.292-20.327l-.287.052c-5.876-1.22-12.451-1.946-19.842-2.067c-13.456-.22-23.664 3.528-31.41 9.402c0 0-95.43-39.314-90.991 49.444c.944 18.882 27.064 142.873 58.218 105.422c11.387-13.695 22.39-25.274 22.39-25.274c5.464 3.63 12.006 5.482 18.864 4.817l.533-.452c-.166 1.7-.09 3.363.213 5.332c-8.026 8.967-5.667 10.541-21.711 13.844c-16.235 3.346-6.698 9.302-.471 10.86c7.549 1.887 25.013 4.561 36.813-11.958l-.47 1.885c3.144 2.519 5.352 16.383 4.982 28.952c-.37 12.568-.617 21.197 1.86 27.937c2.479 6.74 4.948 21.905 26.04 17.386c17.623-3.777 26.756-13.564 28.027-29.89c.901-11.606 2.942-9.89 3.07-20.267l1.637-4.912c1.887-15.733.3-20.809 11.157-18.448l2.64.232c7.99.363 18.45-1.286 24.589-4.139c13.218-6.134 21.058-16.377 8.024-13.686z"/><path fill="#fff" d="M108.076 81.525c-2.68-.373-5.107-.028-6.335.902c-.69.523-.904 1.129-.962 1.546c-.154 1.105.62 2.327 1.096 2.957c1.346 1.784 3.312 3.01 5.258 3.28q.423.059.842.058c3.245 0 6.196-2.527 6.456-4.392c.325-2.336-3.066-3.893-6.355-4.35m88.784.073c-.256-1.831-3.514-2.353-6.606-1.923c-3.088.43-6.082 1.824-5.832 3.659c.2 1.427 2.777 3.863 5.827 3.863q.387 0 .78-.054c2.036-.282 3.53-1.575 4.24-2.32c1.08-1.136 1.706-2.402 1.591-3.225"/><path fill="#fff" d="M247.802 160.025c-1.134-3.429-4.784-4.532-10.848-3.28c-18.005 3.716-24.453 1.142-26.57-.417c13.995-21.32 25.508-47.092 31.719-71.137c2.942-11.39 4.567-21.968 4.7-30.59c.147-9.463-1.465-16.417-4.789-20.665c-13.402-17.125-33.072-26.311-56.882-26.563c-16.369-.184-30.199 4.005-32.88 5.183c-5.646-1.404-11.801-2.266-18.502-2.376c-12.288-.199-22.91 2.743-31.704 8.74c-3.82-1.422-13.692-4.811-25.765-6.756c-20.872-3.36-37.458-.814-49.294 7.571c-14.123 10.006-20.643 27.892-19.38 53.16c.425 8.501 5.269 34.653 12.913 59.698c10.062 32.964 21 51.625 32.508 55.464c1.347.449 2.9.763 4.613.763c4.198 0 9.345-1.892 14.7-8.33a530 530 0 0 1 20.261-22.926c4.524 2.428 9.494 3.784 14.577 3.92q.016.2.035.398a118 118 0 0 0-2.57 3.175c-3.522 4.471-4.255 5.402-15.592 7.736c-3.225.666-11.79 2.431-11.916 8.435c-.136 6.56 10.125 9.315 11.294 9.607c4.074 1.02 7.999 1.523 11.742 1.523c9.103 0 17.114-2.992 23.516-8.781c-.197 23.386.778 46.43 3.586 53.451c2.3 5.748 7.918 19.795 25.664 19.794c2.604 0 5.47-.303 8.623-.979c18.521-3.97 26.564-12.156 29.675-30.203c1.665-9.645 4.522-32.676 5.866-45.03c2.836.885 6.487 1.29 10.434 1.289c8.232 0 17.731-1.749 23.688-4.514c6.692-3.108 18.768-10.734 16.578-17.36m-44.106-83.48c-.061 3.647-.563 6.958-1.095 10.414c-.573 3.717-1.165 7.56-1.314 12.225c-.147 4.54.42 9.26.968 13.825c1.108 9.22 2.245 18.712-2.156 28.078a37 37 0 0 1-1.95-4.009c-.547-1.326-1.735-3.456-3.38-6.404c-6.399-11.476-21.384-38.35-13.713-49.316c2.285-3.264 8.084-6.62 22.64-4.813m-17.644-61.787c21.334.471 38.21 8.452 50.158 23.72c9.164 11.711-.927 64.998-30.14 110.969a171 171 0 0 0-.886-1.117l-.37-.462c7.549-12.467 6.073-24.802 4.759-35.738c-.54-4.488-1.05-8.727-.92-12.709c.134-4.22.692-7.84 1.232-11.34c.663-4.313 1.338-8.776 1.152-14.037c.139-.552.195-1.204.122-1.978c-.475-5.045-6.235-20.144-17.975-33.81c-6.422-7.475-15.787-15.84-28.574-21.482c5.5-1.14 13.021-2.203 21.442-2.016M66.674 175.778c-5.9 7.094-9.974 5.734-11.314 5.288c-8.73-2.912-18.86-21.364-27.791-50.624c-7.728-25.318-12.244-50.777-12.602-57.916c-1.128-22.578 4.345-38.313 16.268-46.769c19.404-13.76 51.306-5.524 64.125-1.347c-.184.182-.376.352-.558.537c-21.036 21.244-20.537 57.54-20.485 59.759c-.002.856.07 2.068.168 3.735c.362 6.105 1.036 17.467-.764 30.334c-1.672 11.957 2.014 23.66 10.111 32.109a36 36 0 0 0 2.617 2.468c-3.604 3.86-11.437 12.396-19.775 22.426m22.479-29.993c-6.526-6.81-9.49-16.282-8.133-25.99c1.9-13.592 1.199-25.43.822-31.79c-.053-.89-.1-1.67-.127-2.285c3.073-2.725 17.314-10.355 27.47-8.028c4.634 1.061 7.458 4.217 8.632 9.645c6.076 28.103.804 39.816-3.432 49.229c-.873 1.939-1.698 3.772-2.402 5.668l-.546 1.466c-1.382 3.706-2.668 7.152-3.465 10.424c-6.938-.02-13.687-2.984-18.819-8.34m1.065 37.9c-2.026-.506-3.848-1.385-4.917-2.114c.893-.42 2.482-.992 5.238-1.56c13.337-2.745 15.397-4.683 19.895-10.394c1.031-1.31 2.2-2.794 3.819-4.602l.002-.002c2.411-2.7 3.514-2.242 5.514-1.412c1.621.67 3.2 2.702 3.84 4.938c.303 1.056.643 3.06-.47 4.62c-9.396 13.156-23.088 12.987-32.921 10.526m69.799 64.952c-16.316 3.496-22.093-4.829-25.9-14.346c-2.457-6.144-3.665-33.85-2.808-64.447c.011-.407-.047-.8-.159-1.17a15.4 15.4 0 0 0-.456-2.162c-1.274-4.452-4.379-8.176-8.104-9.72c-1.48-.613-4.196-1.738-7.46-.903c.696-2.868 1.903-6.107 3.212-9.614l.549-1.475c.618-1.663 1.394-3.386 2.214-5.21c4.433-9.848 10.504-23.337 3.915-53.81c-2.468-11.414-10.71-16.988-23.204-15.693c-7.49.775-14.343 3.797-17.761 5.53c-.735.372-1.407.732-2.035 1.082c.954-11.5 4.558-32.992 18.04-46.59c8.489-8.56 19.794-12.788 33.568-12.56c27.14.444 44.544 14.372 54.366 25.979c8.464 10.001 13.047 20.076 14.876 25.51c-13.755-1.399-23.11 1.316-27.852 8.096c-10.317 14.748 5.644 43.372 13.315 57.129c1.407 2.521 2.621 4.7 3.003 5.626c2.498 6.054 5.732 10.096 8.093 13.046c.724.904 1.426 1.781 1.96 2.547c-4.166 1.201-11.649 3.976-10.967 17.847c-.55 6.96-4.461 39.546-6.448 51.059c-2.623 15.21-8.22 20.875-23.957 24.25m68.104-77.936c-4.26 1.977-11.389 3.46-18.161 3.779c-7.48.35-11.288-.838-12.184-1.569c-.42-8.644 2.797-9.547 6.202-10.503c.535-.15 1.057-.297 1.561-.473q.469.383 1.032.756c6.012 3.968 16.735 4.396 31.874 1.271l.166-.033c-2.042 1.909-5.536 4.471-10.49 6.772"/></svg></g></g></g><g id="my-svg-service-rdb" class="architecture-service" transform="translate(365.9227794555059,43.49770944977716)"><g dy="1em" alignment-baseline="middle" dominant-baseline="middle" text-anchor="middle" transform="translate(40, 80)"><g><rect class="background" style="stroke: none"/><text y="-10.1" style=""><tspan class="text-outer-tspan row" x="0" y="-0.1em" dy="1.1em"><tspan font-style="normal" class="text-inner-tspan" font-weight="normal">Redis</tspan></tspan></text></g></g><g><g><svg xmlns="http://www.w3.org/2000/svg" width="80" height="80" viewBox="0 0 256 220"><path fill="#912626" d="M245.97 168.943c-13.662 7.121-84.434 36.22-99.501 44.075s-23.437 7.78-35.34 2.09c-11.902-5.69-87.216-36.112-100.783-42.597C3.566 169.271 0 166.535 0 163.951v-25.876s98.05-21.345 113.879-27.024c15.828-5.679 21.32-5.884 34.79-.95c13.472 4.936 94.018 19.468 107.331 24.344l-.006 25.51c.002 2.558-3.07 5.364-10.024 8.988"/><path fill="#c6302b" d="M245.965 143.22c-13.661 7.118-84.431 36.218-99.498 44.072c-15.066 7.857-23.436 7.78-35.338 2.09c-11.903-5.686-87.214-36.113-100.78-42.594c-13.566-6.485-13.85-10.948-.524-16.166c13.326-5.22 88.224-34.605 104.055-40.284c15.828-5.677 21.319-5.884 34.789-.948c13.471 4.934 83.819 32.935 97.13 37.81c13.316 4.881 13.827 8.9.166 16.02"/><path fill="#912626" d="M245.97 127.074c-13.662 7.122-84.434 36.22-99.501 44.078c-15.067 7.853-23.437 7.777-35.34 2.087c-11.903-5.687-87.216-36.112-100.783-42.597C3.566 127.402 0 124.67 0 122.085V96.206s98.05-21.344 113.879-27.023c15.828-5.679 21.32-5.885 34.79-.95C162.142 73.168 242.688 87.697 256 92.574l-.006 25.513c.002 2.557-3.07 5.363-10.024 8.987"/><path fill="#c6302b" d="M245.965 101.351c-13.661 7.12-84.431 36.218-99.498 44.075c-15.066 7.854-23.436 7.777-35.338 2.087c-11.903-5.686-87.214-36.112-100.78-42.594c-13.566-6.483-13.85-10.947-.524-16.167C23.151 83.535 98.05 54.148 113.88 48.47c15.828-5.678 21.319-5.884 34.789-.949c13.471 4.934 83.819 32.933 97.13 37.81c13.316 4.88 13.827 8.9.166 16.02"/><path fill="#912626" d="M245.97 83.653c-13.662 7.12-84.434 36.22-99.501 44.078c-15.067 7.854-23.437 7.777-35.34 2.087c-11.903-5.687-87.216-36.113-100.783-42.595C3.566 83.98 0 81.247 0 78.665v-25.88s98.05-21.343 113.879-27.021c15.828-5.68 21.32-5.884 34.79-.95C162.142 29.749 242.688 44.278 256 49.155l-.006 25.512c.002 2.555-3.07 5.361-10.024 8.986"/><path fill="#c6302b" d="M245.965 57.93c-13.661 7.12-84.431 36.22-99.498 44.074c-15.066 7.854-23.436 7.777-35.338 2.09C99.227 98.404 23.915 67.98 10.35 61.497S-3.5 50.55 9.825 45.331C23.151 40.113 98.05 10.73 113.88 5.05c15.828-5.679 21.319-5.883 34.789-.948s83.819 32.934 97.13 37.811c13.316 4.876 13.827 8.897.166 16.017"/><path fill="#fff" d="m159.283 32.757l-22.01 2.285l-4.927 11.856l-7.958-13.23l-25.415-2.284l18.964-6.839l-5.69-10.498l17.755 6.944l16.738-5.48l-4.524 10.855zm-28.251 57.518L89.955 73.238l58.86-9.035zm-56.95-50.928c17.375 0 31.46 5.46 31.46 12.194c0 6.736-14.085 12.195-31.46 12.195s-31.46-5.46-31.46-12.195c0-6.734 14.085-12.194 31.46-12.194"/><path fill="#621b1c" d="m185.295 35.998l34.836 13.766l-34.806 13.753z"/><path fill="#9a2928" d="m146.755 51.243l38.54-15.245l.03 27.519l-3.779 1.478z"/></svg></g></g></g><g id="my-svg-service-els" class="architecture-service" transform="translate(209.383033936127,145.903238803867)"><g dy="1em" alignment-baseline="middle" dominant-baseline="middle" text-anchor="middle" transform="translate(40, 80)"><g><rect class="background" style="stroke: none"/><text y="-10.1" style=""><tspan class="text-outer-tspan row" x="0" y="-0.1em" dy="1.1em"><tspan font-style="normal" class="text-inner-tspan" font-weight="normal">Elasticsearch</tspan></tspan></text></g></g><g><g><svg xmlns="http://www.w3.org/2000/svg" width="80" height="80" viewBox="0 0 256 288"><path fill="#343741" d="M0 143.82c0 12.44 1.744 24.441 4.71 35.956h175.067c19.856 0 35.955-16.1 35.955-35.956c0-19.865-16.1-35.955-35.955-35.955H4.71C1.744 119.371 0 131.38 0 143.82"/><path fill="#fec514" d="M242.013 68.863c5.025-4.629 9.7-9.6 13.987-14.93C229.636 21.079 189.213 0 143.82 0C87 0 38.101 33.052 14.775 80.9h196.559c11.38 0 22.319-4.324 30.678-12.037"/><path fill="#00bfb3" d="M211.334 206.742H14.774c23.336 47.839 72.226 80.9 129.045 80.9c45.393 0 85.816-21.088 112.18-53.933a136.6 136.6 0 0 0-13.987-14.94c-8.36-7.721-19.299-12.027-30.678-12.027"/></svg></g></g></g><g id="my-svg-service-prom" class="architecture-service" transform="translate(-99.10861999504522,-200.9135433954438)"><g dy="1em" alignment-baseline="middle" dominant-baseline="middle" text-anchor="middle" transform="translate(40, 80)"><g><rect class="background" style="stroke: none"/><text y="-10.1" style=""><tspan class="text-outer-tspan row" x="0" y="-0.1em" dy="1.1em"><tspan font-style="normal" class="text-inner-tspan" font-weight="normal">Prometheus</tspan></tspan></text></g></g><g><g><svg xmlns="http://www.w3.org/2000/svg" width="80" height="80" viewBox="0 0 256 257"><path fill="#da4e31" d="M128.001.667C57.311.667 0 57.971 0 128.664c0 70.69 57.311 127.998 128.001 127.998S256 199.354 256 128.664C256 57.97 198.689.667 128.001.667m0 239.56c-20.112 0-36.419-13.435-36.419-30.004h72.838c0 16.566-16.306 30.004-36.419 30.004m60.153-39.94H67.842V178.47h120.314v21.816zm-.432-33.045H68.185c-.398-.458-.804-.91-1.188-1.375c-12.315-14.954-15.216-22.76-18.032-30.716c-.048-.262 14.933 3.06 25.556 5.45c0 0 5.466 1.265 13.458 2.722c-7.673-8.994-12.23-20.428-12.23-32.116c0-25.658 19.68-48.079 12.58-66.201c6.91.562 14.3 14.583 14.8 36.505c7.346-10.152 10.42-28.69 10.42-40.056c0-11.769 7.755-25.44 15.512-25.907c-6.915 11.396 1.79 21.165 9.53 45.4c2.902 9.103 2.532 24.423 4.772 34.138c.744-20.178 4.213-49.62 17.014-59.784c-5.647 12.8.836 28.818 5.27 36.518c7.154 12.424 11.49 21.836 11.49 39.638c0 11.936-4.407 23.173-11.84 31.958c8.452-1.586 14.289-3.016 14.289-3.016l27.45-5.355c.002-.002-3.987 16.401-19.314 32.197"/></svg></g></g></g><g id="my-svg-service-graf" class="architecture-service" transform="translate(100.15462892623492,-200.9135433954438)"><g dy="1em" alignment-baseline="middle" dominant-baseline="middle" text-anchor="middle" transform="translate(40, 80)"><g><rect class="background" style="stroke: none"/><text y="-10.1" style=""><tspan class="text-outer-tspan row" x="0" y="-0.1em" dy="1.1em"><tspan font-style="normal" class="text-inner-tspan" font-weight="normal">Grafana</tspan></tspan></text></g></g><g><g><svg xmlns="http://www.w3.org/2000/svg" width="80" height="80" viewBox="0 0 256 279"><defs><linearGradient id="IconifyId19eaf25d72bbbe7ed0" x1="49.995%" x2="49.995%" y1="122.45%" y2="31.139%"><stop offset="0%" stop-color="#fff100"/><stop offset="100%" stop-color="#f05a28"/></linearGradient></defs><path fill="url(#IconifyId19eaf25d72bbbe7ed0)" d="M255.59 122.775c-.46-4.675-1.226-10.04-2.759-16.017a98 98 0 0 0-7.204-19.16a106.7 106.7 0 0 0-13.412-20.54c-2.222-2.681-4.675-5.287-7.28-7.816c3.908-15.558-4.752-29.046-4.752-29.046c-14.945-.92-24.448 4.675-27.973 7.204c-.613-.23-1.15-.537-1.763-.767c-2.529-.996-5.135-1.992-7.894-2.835a130 130 0 0 0-8.277-2.3c-2.835-.69-5.67-1.226-8.583-1.686c-.537-.076-.996-.153-1.533-.23C157.646 8.738 138.946 0 138.946 0c-20.922 13.258-24.831 31.805-24.831 31.805s-.077.383-.23 1.073c-1.15.307-2.299.69-3.449.996c-1.609.46-3.218 1.073-4.751 1.686a123 123 0 0 0-4.752 1.916a117 117 0 0 0-9.35 4.599c-2.989 1.686-5.9 3.525-8.737 5.441l-.766-.307c-28.97-11.036-54.643 2.223-54.643 2.223c-2.376 30.809 11.572 50.198 14.331 53.724c-.69 1.916-1.303 3.832-1.916 5.748c-2.146 6.974-3.755 14.101-4.751 21.535c-.154 1.073-.307 2.146-.384 3.219C7.894 146.916 0 173.97 0 173.97c22.302 25.674 48.359 27.283 48.359 27.283l.077-.076c3.295 5.9 7.127 11.495 11.419 16.783a112 112 0 0 0 5.671 6.362c-8.124 23.298 1.15 42.61 1.15 42.61c24.83.92 41.155-10.882 44.603-13.564a85 85 0 0 0 7.511 2.222a109.7 109.7 0 0 0 23.298 3.449c1.916.076 3.909.153 5.825.076h2.759l1.226-.076v.076c11.726 16.708 32.265 19.084 32.265 19.084c14.638-15.405 15.48-30.733 15.48-34.028v-1.38c3.066-2.145 5.979-4.445 8.738-6.974c5.824-5.288 10.959-11.342 15.25-17.857l1.15-1.839c16.554.92 28.28-10.27 28.28-10.27c-2.759-17.243-12.569-25.673-14.638-27.283c0 0-.077-.076-.23-.153s-.153-.153-.153-.153c-.077-.077-.23-.154-.383-.23c.076-1.073.153-2.07.23-3.142c.153-1.84.153-3.756.153-5.595v-2.913l-.077-1.149l-.076-1.533c0-.536-.077-.996-.154-1.456c-.076-.46-.076-.996-.153-1.456l-.153-1.456l-.23-1.456c-.307-1.916-.613-3.756-1.073-5.672c-1.763-7.433-4.675-14.484-8.43-20.845a70.4 70.4 0 0 0-14.025-16.707c-5.365-4.752-11.42-8.584-17.704-11.42c-6.36-2.835-12.952-4.675-19.543-5.518c-3.295-.46-6.59-.613-9.886-.536h-2.453l-1.226.077c-.46 0-.92.076-1.303.076a52 52 0 0 0-4.981.69c-6.591 1.226-12.799 3.602-18.24 6.897s-10.193 7.358-14.025 11.956a54.7 54.7 0 0 0-8.89 15.021a52.9 52.9 0 0 0-3.525 16.094c-.077 1.303-.077 2.683-.077 3.986v.996l.077 1.073c.076.613.076 1.303.153 1.916c.23 2.682.766 5.288 1.456 7.74c1.456 4.982 3.755 9.503 6.59 13.335s6.285 6.975 9.887 9.504c3.602 2.452 7.51 4.215 11.343 5.364c3.832 1.15 7.664 1.61 11.266 1.61h1.993c.23 0 .46 0 .689-.077c.383 0 .766-.077 1.15-.077c.076 0 .23 0 .306-.076l.383-.077c.23 0 .46-.076.69-.076c.46-.077.843-.154 1.303-.23s.843-.154 1.226-.307c.843-.153 1.61-.46 2.376-.69c1.533-.536 3.066-1.15 4.368-1.839c1.38-.69 2.606-1.533 3.832-2.3c.307-.23.69-.459.997-.766c1.226-.996 1.456-2.835.46-4.061c-.844-1.073-2.376-1.38-3.603-.69l-.92.46a25 25 0 0 1-3.295 1.38c-1.15.382-2.375.689-3.602.919c-.613.076-1.226.153-1.916.23c-.306 0-.613.076-.996.076h-1.84c-.383 0-.766 0-1.149-.076h-.46c-.153 0-.383 0-.536-.077c-.383-.077-.69-.077-1.073-.153c-2.836-.383-5.671-1.226-8.354-2.453a29.3 29.3 0 0 1-7.74-5.058c-2.376-2.146-4.445-4.675-6.055-7.587s-2.759-6.131-3.295-9.503c-.23-1.686-.383-3.449-.307-5.135c0-.46.077-.92.077-1.38v-.613c0-.23.077-.46.077-.69c.076-.919.23-1.839.383-2.758c1.303-7.358 4.981-14.562 10.653-20.003c1.456-1.38 2.988-2.606 4.598-3.755a31.7 31.7 0 0 1 5.211-2.99a36 36 0 0 1 5.672-2.068c1.915-.537 3.908-.844 5.977-1.073c.997-.077 1.993-.154 3.066-.154h2.376l.843.077c2.222.153 4.368.46 6.514.996c4.292.92 8.507 2.53 12.415 4.675c7.818 4.369 14.485 11.113 18.547 19.237c2.07 4.061 3.525 8.43 4.215 12.951c.153 1.15.307 2.3.383 3.45l.077.842l.077.843v3.296c0 .536-.077 1.456-.077 1.992c-.077 1.227-.23 2.53-.383 3.756s-.383 2.452-.613 3.678a50 50 0 0 1-.843 3.602a64 64 0 0 1-2.3 7.128a62.4 62.4 0 0 1-7.204 13.105c-5.9 8.124-13.948 14.715-23.144 18.93c-4.599 2.069-9.427 3.602-14.408 4.368c-2.453.46-4.982.69-7.511.766h-3.832a36 36 0 0 1-4.062-.23c-5.365-.383-10.653-1.379-15.864-2.835c-5.135-1.456-10.116-3.525-14.868-5.978c-9.427-5.058-17.933-11.956-24.524-20.31a79 79 0 0 1-8.584-13.334a79 79 0 0 1-5.671-14.638c-1.38-5.058-2.223-10.193-2.606-15.405l-.077-.996v-6.821c.077-2.529.307-5.211.614-7.817c.306-2.606.766-5.288 1.302-7.894c.537-2.605 1.15-5.211 1.916-7.817a103 103 0 0 1 5.442-14.791c4.368-9.35 10.04-17.704 16.86-24.371c1.686-1.686 3.449-3.22 5.288-4.752a78 78 0 0 1 5.748-4.138c1.916-1.303 3.985-2.453 6.055-3.526a40 40 0 0 1 3.142-1.533l3.219-1.379c2.146-.92 4.368-1.686 6.667-2.376c.537-.153 1.15-.306 1.686-.536c.537-.154 1.15-.307 1.686-.46c1.15-.307 2.3-.613 3.45-.843c.536-.153 1.149-.23 1.762-.383c.613-.154 1.15-.23 1.763-.384c.613-.076 1.15-.23 1.762-.306l.843-.153l.92-.154c.613-.076 1.15-.153 1.763-.23c.69-.076 1.302-.153 1.992-.23c.537-.076 1.456-.153 1.993-.23c.383-.076.843-.076 1.226-.153l.843-.076l.383-.077h.46c.69-.077 1.303-.077 1.993-.153l.996-.077h.767c.536 0 1.149-.076 1.685-.076a99 99 0 0 1 6.745 0c4.445.153 8.813.69 13.028 1.456c8.507 1.61 16.478 4.291 23.758 7.893c7.28 3.526 13.719 7.894 19.39 12.646c.383.306.69.613 1.073.92c.306.306.69.613.996.92c.69.612 1.303 1.225 1.993 1.838c.69.614 1.303 1.227 1.916 1.84a44 44 0 0 1 1.839 1.916c2.376 2.529 4.598 5.058 6.59 7.664a99 99 0 0 1 9.734 15.25l.46.92l.46.92c.306.613.613 1.226.843 1.84c.306.613.536 1.149.843 1.762c.23.613.536 1.15.766 1.763c.92 2.299 1.84 4.521 2.53 6.59c1.149 3.373 1.992 6.362 2.682 8.967a2.043 2.043 0 0 0 2.299 1.61c1.15-.077 1.992-.996 1.992-2.146c.077-2.759 0-6.054-.383-9.81"/></svg></g></g></g></g><g class="architecture-groups"><rect id="my-svg-group-ext" x="-509.90561907227936" y="103.403238803867" width="206" height="182" class="node-bkg"/><g><g dy="1em" alignment-baseline="middle" dominant-baseline="start" text-anchor="start" transform="translate(-505.90561907227936, 105.403238803867)"><g><rect class="background" style="stroke: none"/><text y="-10.1" style=""><tspan class="text-outer-tspan row" x="0" y="-0.1em" dy="1.1em"><tspan font-style="normal" class="text-inner-tspan" font-weight="normal">External</tspan></tspan></text></g></g></g><rect id="my-svg-group-aws" x="-232.60861999504522" y="-284.91354339544387" width="805.5142390673248" height="702.3270867908877" class="node-bkg"/><g><g dy="1em" alignment-baseline="middle" dominant-baseline="start" text-anchor="start" transform="translate(-228.60861999504522, -282.91354339544387)"><g><rect class="background" style="stroke: none"/><text y="-10.1" style=""><tspan class="text-outer-tspan row" x="0" y="-0.1em" dy="1.1em"><tspan font-style="normal" class="text-inner-tspan" font-weight="normal">AWS</tspan><tspan font-style="normal" class="text-inner-tspan" font-weight="normal"> Cloud</tspan></tspan></text></g></g></g><rect id="my-svg-group-ec2" x="-191.10861999504522" y="61.903238803867" width="264" height="265" class="node-bkg"/><g><g dy="1em" alignment-baseline="middle" dominant-baseline="start" text-anchor="start" transform="translate(-187.10861999504522, 63.903238803867)"><g><rect class="background" style="stroke: none"/><text y="-10.1" style=""><tspan class="text-outer-tspan row" x="0" y="-0.1em" dy="1.1em"><tspan font-style="normal" class="text-inner-tspan" font-weight="normal">EC2</tspan><tspan font-style="normal" class="text-inner-tspan" font-weight="normal"> Instance</tspan></tspan></text></g></g></g><rect id="my-svg-group-dock" x="-149.60861999504522" y="103.403238803867" width="181" height="182" class="node-bkg"/><g><g dy="1em" alignment-baseline="middle" dominant-baseline="start" text-anchor="start" transform="translate(-145.60861999504522, 105.403238803867)"><g><rect class="background" style="stroke: none"/><text y="-10.1" style=""><tspan class="text-outer-tspan row" x="0" y="-0.1em" dy="1.1em"><tspan font-style="normal" class="text-inner-tspan" font-weight="normal">Docker</tspan></tspan></text></g></g></g><rect id="my-svg-group-stores" x="152.883033936127" y="0.9977094497771759" width="378.52258513615243" height="374.9158339456667" class="node-bkg"/><g><g dy="1em" alignment-baseline="middle" dominant-baseline="start" text-anchor="start" transform="translate(156.883033936127, 2.997709449777176)"><g><rect class="background" style="stroke: none"/><text y="-10.1" style=""><tspan class="text-outer-tspan row" x="0" y="-0.1em" dy="1.1em"><tspan font-style="normal" class="text-inner-tspan" font-weight="normal">Data</tspan><tspan font-style="normal" class="text-inner-tspan" font-weight="normal"> Stores</tspan></tspan></text></g></g></g><rect id="my-svg-group-mon" x="-150.60861999504522" y="-243.4135433954438" width="373.26324892128014" height="182" class="node-bkg"/><g><g dy="1em" alignment-baseline="middle" dominant-baseline="start" text-anchor="start" transform="translate(-146.60861999504522, -241.4135433954438)"><g><rect class="background" style="stroke: none"/><text y="-10.1" style=""><tspan class="text-outer-tspan row" x="0" y="-0.1em" dy="1.1em"><tspan font-style="normal" class="text-inner-tspan" font-weight="normal">Monitoring</tspan></tspan></text></g></g></g></g></svg>